<svg width="8000" height="8000" viewBox="0 0 8000 8000" fill="none" xmlns="http://www.w3.org/2000/svg">
<g clip-path="url(#clip0_17_4)">
<path d="M0 -0.000488281C2640 -0.000488281 5280 -0.000488281 8000 -0.000488281C8000 2640 8000 5280 8000 8000C5360 8000 2720 8000 0 8000C0 5360 0 2720 0 -0.000488281Z" fill="#212529"/>
<path d="M4110.91 555.948C4112.63 556.034 4112.63 556.034 4114.37 556.121C4200.37 560.443 4286.95 568.376 4520.36 654.673C4522 655.281 4523.6 656.121 4525.03 657.134C4525.44 657.418 4525.84 657.702 4526.24 657.986C4533.95 663.484 4541.19 669.381 4548.26 675.729C4549.41 676.763 4550.57 677.79 4551.73 678.814C4564.76 690.364 4576.74 702.949 4586.88 717.251C4587.73 718.432 4588.59 719.614 4589.45 720.795C4595.49 729.211 4600.84 737.96 4605.87 747.046C4606.42 748.019 4606.42 748.019 4606.98 749.013C4618.88 770.376 4633.73 800.93 4634.81 826.337C4634.88 827.963 4636.15 829.303 4637.77 829.385C4647.89 829.941 4657.86 831.062 4667.9 832.477C4669.52 832.701 4671.13 832.925 4672.75 833.148C4677.06 833.745 4681.37 834.351 4685.68 834.96C4688.39 835.342 4691.1 835.723 4693.81 836.104C4767.86 846.519 4841.63 858.991 4914.85 874.444C4915.92 874.67 4916.99 874.895 4918.09 875.127C5009.59 894.44 5100.1 918.321 5188.83 948.418C5189.71 948.717 5190.59 949.016 5191.5 949.325C5286.26 981.53 5382.42 1020.46 5514.8 1108.69C5516 1109.65 5517.21 1110.6 5518.41 1111.55C5529.35 1120.26 5539.9 1129.38 5550.07 1139.02C5552.18 1140.99 5554.32 1142.92 5556.48 1144.84C5560.67 1148.6 5564.63 1152.55 5568.55 1156.59C5569.25 1157.32 5569.96 1158.04 5570.68 1158.78C5572.16 1160.3 5573.64 1161.82 5575.11 1163.34C5577.35 1165.64 5579.6 1167.94 5581.84 1170.24C5583.28 1171.73 5584.73 1173.21 5586.17 1174.7C5587.16 1175.72 5587.16 1175.72 5588.18 1176.75C5592.58 1181.3 5596.72 1186.03 5600.79 1190.89C5601.81 1192.07 5602.84 1193.26 5603.86 1194.45C5611.43 1203.25 5618.46 1212.38 5625.32 1221.77C5626.62 1223.53 5627.94 1225.27 5629.27 1227.01C5641.78 1243.34 5653.05 1260.57 5663.21 1278.54C5664.77 1281.27 5666.37 1283.98 5667.97 1286.68C5672.91 1295.07 5677.57 1303.59 5682.04 1312.25C5682.4 1312.95 5682.76 1313.65 5683.14 1314.38C5721.55 1388.97 5744.58 1473.43 5749.78 1557.67C5749.87 1559.01 5749.96 1560.35 5750.05 1561.74C5750.76 1573.28 5750.9 1584.77 5750.84 1596.33C5750.84 1598.07 5750.83 1599.82 5750.83 1601.57C5750.82 1604.75 5750.81 1607.93 5750.8 1611.11C5750.79 1612.85 5752.1 1614.33 5753.83 1614.53C5764.85 1615.81 5775.8 1617.39 5786.76 1619.1C5787.63 1619.24 5788.51 1619.38 5789.41 1619.52C5794.04 1620.24 5798.67 1620.97 5803.3 1621.7C5807.05 1622.29 5810.8 1622.88 5814.56 1623.45C5871.24 1632.18 5871.24 1632.18 5896.83 1641.79C5898.02 1642.22 5899.2 1642.66 5900.43 1643.1C5938.52 1657.23 5973.41 1677.97 6003.76 1705.62C6004.72 1706.49 6005.67 1707.36 6006.66 1708.25C6018.85 1719.53 6030.77 1731.26 6040.76 1744.66C6041.78 1746 6042.81 1747.35 6043.84 1748.69C6054.53 1762.78 6064.12 1777.45 6072.76 1792.95C6073.11 1793.59 6073.47 1794.23 6073.84 1794.89C6091.77 1827.32 6102.85 1863.36 6109 1899.99C6109.15 1900.88 6109.3 1901.77 6109.46 1902.68C6112.81 1923.96 6113.05 1945.29 6113.01 1966.78C6113.01 1971.04 6113.02 1975.3 6113.02 1979.56C6113.03 1987.87 6113.03 1996.18 6113.02 2004.49C6113.02 2011.26 6113.02 2018.02 6113.02 2024.78C6113.02 2025.75 6113.02 2026.72 6113.02 2027.72C6113.02 2029.68 6113.02 2031.65 6113.02 2033.62C6113.03 2052 6113.02 2070.39 6113.01 2088.78C6113 2104.5 6113 2120.23 6113.01 2135.95C6113.02 2154.27 6113.03 2172.6 6113.02 2190.92C6113.02 2192.88 6113.02 2194.84 6113.02 2196.8C6113.02 2198.25 6113.02 2198.25 6113.02 2199.72C6113.02 2206.47 6113.02 2213.21 6113.02 2219.95C6113.03 2228.19 6113.03 2236.42 6113.02 2244.66C6113.01 2248.85 6113.01 2253.04 6113.02 2257.23C6113.05 2280.19 6112.77 2303.14 6108.63 2325.79C6108.31 2327.56 6108.31 2327.56 6107.98 2329.36C6099.66 2373.78 6083.17 2417.44 6057.76 2454.6C6056.98 2455.76 6056.2 2456.92 6055.42 2458.08C6050.43 2465.46 6045.11 2472.4 6039.38 2479.19C6037.06 2481.95 6034.88 2484.79 6032.7 2487.67C6028.35 2493.16 6023.56 2498.14 6018.7 2503.14C6017.94 2503.92 6017.19 2504.7 6016.41 2505.5C6011.68 2510.31 6006.82 2514.89 6001.76 2519.32C6001.2 2519.82 6000.65 2520.32 6000.07 2520.84C5982.23 2536.72 5961.8 2550.47 5940.77 2561.45C5939.86 2561.93 5938.96 2562.41 5938.03 2562.9C5908.48 2578.44 5877.48 2588.52 5844.78 2594.16C5844.04 2594.29 5843.29 2594.42 5842.53 2594.55C5824.29 2597.73 5806.01 2600.56 5787.72 2603.38C5782.06 2604.25 5776.41 2605.12 5770.76 2606C5768.54 2606.35 5766.31 2606.69 5764.09 2607.03C5762.75 2607.24 5761.4 2607.44 5760.06 2607.65C5758.89 2607.83 5757.72 2608.01 5756.52 2608.2C5753.35 2608.63 5751.38 2611.55 5751.26 2614.74C5751.26 2614.82 5751.26 2614.9 5751.25 2614.97C5751.15 2616.66 5751.15 2616.66 5751.05 2618.38C5750.98 2619.62 5750.91 2620.86 5750.84 2622.13C5750.68 2624.79 5750.5 2627.45 5750.33 2630.1C5750.29 2630.8 5750.24 2631.49 5750.2 2632.2C5744.81 2715.57 5723.97 2795.72 5647.79 2942.62C5647.31 2943.32 5646.84 2944.02 5646.35 2944.75C5640.01 2954.11 5633.55 2963.37 5626.79 2972.41C5626.38 2972.97 5625.96 2973.53 5625.53 2974.1C5616.52 2986.14 5606.98 2997.68 5597.02 3008.91C5595.77 3010.33 5594.53 3011.77 5593.31 3013.22C5589.11 3018.23 5584.73 3022.97 5580.17 3027.64C5579.47 3028.36 5578.77 3029.09 5578.04 3029.83C5576.57 3031.35 5575.09 3032.87 5573.61 3034.38C5571.36 3036.68 5569.13 3038.99 5566.89 3041.29C5565.44 3042.78 5564 3044.26 5562.55 3045.75C5561.56 3046.77 5561.56 3046.77 5560.55 3047.8C5556.13 3052.33 5551.53 3056.59 5546.8 3060.77C5545.68 3061.77 5544.56 3062.77 5543.45 3063.77C5536.05 3070.35 5528.53 3076.73 5520.76 3082.85C5519.41 3083.92 5518.06 3084.99 5516.72 3086.06C5505.94 3094.66 5494.84 3102.69 5483.49 3110.47C5482.87 3110.9 5482.25 3111.32 5481.61 3111.76C5469.14 3120.32 5456.31 3128.21 5443.26 3135.81C5440.96 3137.15 5438.67 3138.51 5436.38 3139.88C5429.29 3144.11 5422.1 3148.04 5414.74 3151.76C5410.91 3153.7 5407.09 3155.68 5403.28 3157.67C5385.97 3166.69 5368.46 3175.15 5350.73 3183.29C5347.04 3184.98 5343.36 3186.69 5339.68 3188.4C5276.75 3217.52 5210.93 3241.79 5144.83 3262.14C5143.99 3262.4 5143.16 3262.66 5142.29 3262.92C5048.78 3291.69 4953.85 3314.93 4684.49 3361.22C4683.73 3361.33 4682.97 3361.43 4682.19 3361.54C4668.29 3363.47 4654.4 3365.36 4640.48 3367.08C4639.72 3367.17 4638.95 3367.27 4638.16 3367.36C4634.47 3367.82 4630.79 3368.27 4627.11 3368.71C4625.81 3368.86 4624.51 3369.02 4623.17 3369.18C4622.02 3369.32 4620.87 3369.46 4619.69 3369.6C4616.08 3370.03 4613.82 3373.43 4613.73 3377.07C4613.53 3385.66 4613.33 3394.28 4613.13 3403.01C4612.98 3409.46 4617.53 3415.07 4623.87 3416.25C4627.17 3417.04 4630.44 3417.85 4633.71 3418.72C4634.62 3418.95 4635.54 3419.19 4636.47 3419.43C4639.44 3420.21 4642.41 3420.99 4645.37 3421.77C4646.4 3422.05 4647.43 3422.32 4648.49 3422.6C4695.43 3434.98 4741.78 3449.13 4787.67 3465.14C4791.04 3466.31 4794.42 3467.48 4797.79 3468.63C4879.59 3496.73 4961.04 3532.37 5038.38 3578.16C5041.5 3580 5044.65 3581.78 5047.8 3583.56C5058.32 3589.49 5068.6 3595.78 5078.84 3602.21C5079.74 3602.78 5080.64 3603.35 5081.58 3603.93C5116.99 3626.24 5151.64 3650.27 5184.14 3676.87C5186.49 3678.78 5188.86 3680.68 5191.22 3682.58C5205.41 3693.99 5219.23 3705.84 5232.58 3718.29C5235.35 3720.85 5238.13 3723.39 5240.97 3725.86C5242.82 3727.56 5242.82 3727.56 5244.52 3729.44C5245.05 3730 5245.55 3730.51 5246.05 3730.98C5248.29 3733.07 5251.47 3733.82 5254.42 3732.98C5255.74 3732.66 5255.74 3732.66 5257.09 3732.34C5257.99 3732.12 5258.89 3731.9 5259.82 3731.67C5261.49 3731.32 5263.16 3730.97 5264.83 3730.64C5265.67 3730.47 5266.51 3730.3 5267.38 3730.13C5268.65 3729.87 5268.65 3729.87 5269.95 3729.61C5270.77 3729.44 5271.59 3729.27 5272.44 3729.1C5288.98 3725.8 5305 3725.12 5321.82 3725.18C5322.97 3725.18 5324.12 3725.19 5325.3 3725.19C5343.99 3725.24 5362.28 3726 5380.81 3728.58C5382.08 3728.76 5383.35 3728.93 5384.66 3729.1C5458.79 3739.31 5530.76 3765.53 5595.34 3804.19C5597.55 3805.49 5599.76 3806.77 5602 3808.02C5633.02 3825.47 5661.88 3847.11 5689.79 3869.34C5690.41 3869.83 5691.02 3870.32 5691.66 3870.82C5698.86 3876.53 5705.88 3882.4 5712.75 3888.51C5716.21 3891.59 5719.71 3894.59 5723.28 3897.53C5728.28 3901.69 5732.98 3906.13 5737.66 3910.66C5740.57 3913.48 5743.51 3916.24 5746.54 3918.94C5758.89 3930.02 5770.55 3941.88 5782.13 3953.81C5784.37 3956.12 5786.61 3958.42 5788.86 3960.72C5790.31 3962.22 5791.77 3963.71 5793.22 3965.21C5793.88 3965.88 5794.53 3966.55 5795.21 3967.25C5799.04 3971.2 5802.69 3975.28 5806.24 3979.5C5808.01 3981.61 5809.85 3983.64 5811.71 3985.66C5812.72 3986.75 5812.72 3986.75 5813.74 3987.86C5814.41 3988.58 5815.08 3989.31 5815.78 3990.06C5820.9 3995.6 5825.92 4001.22 5830.77 4007.01C5831.26 4007.59 5831.75 4008.17 5832.25 4008.77C5833.66 4010.45 5835.06 4012.14 5836.46 4013.82C5837.5 4015.07 5838.54 4016.32 5839.58 4017.57C5840.11 4018.2 5840.63 4018.83 5841.18 4019.48C5842.76 4021.38 5844.35 4023.27 5845.93 4025.16C5850.93 4031.11 5855.86 4037.08 5860.6 4043.24C5862.29 4045.43 5864 4047.6 5865.73 4049.76C5871.72 4057.26 5877.55 4064.83 5883.18 4072.62C5887 4077.91 5890.93 4083.12 5894.89 4088.31C5900.27 4095.37 5905.42 4102.56 5910.45 4109.89C5911.91 4112.01 5913.4 4114.12 5914.89 4116.23C5915.71 4117.4 5915.71 4117.4 5916.55 4118.59C5917.6 4120.07 5918.64 4121.54 5919.69 4123.01C5929.07 4136.3 5937.92 4149.97 5946.77 4163.63C5947.49 4164.74 5947.49 4164.74 5948.22 4165.88C5971.98 4202.55 5994.55 4239.97 6015.76 4278.25C6016.31 4279.23 6016.85 4280.21 6017.41 4281.23C6021.22 4288.09 6025 4294.98 6028.76 4301.88C6029.38 4303.02 6030 4304.15 6030.64 4305.32C6039.4 4321.43 6047.88 4337.67 6056.06 4354.09C6058.44 4358.86 6060.85 4363.61 6063.29 4368.35C6069.03 4379.49 6074.59 4390.71 6080.07 4401.99C6080.52 4402.92 6080.98 4403.86 6081.45 4404.83C6088.62 4419.57 6095.52 4434.41 6102.18 4449.41C6103.85 4453.11 6105.54 4456.8 6107.24 4460.49C6117.52 4482.76 6127.23 4505.28 6136.75 4527.91C6137.1 4528.75 6137.46 4529.6 6137.83 4530.47C6170.51 4608.24 6199.99 4687.37 6226.78 4767.49C6227.77 4770.46 6228.77 4773.44 6229.77 4776.41C6257.69 4859.65 6282.52 4943.92 6388.98 5412.57C6389.21 5414.54 6389.21 5414.54 6389.44 5416.56C6389.92 5421.02 6390.34 5425.49 6390.73 5429.97C6390.82 5430.98 6390.91 5431.98 6391 5433.02C6392.69 5453.13 6393.05 5473.13 6392.99 5493.3C6392.98 5497.46 6392.99 5501.62 6393 5505.78C6393.06 5532.74 6392.04 5559.46 6388.42 5586.2C6388.31 5587.02 6388.2 5587.83 6388.09 5588.67C6380.79 5643.83 6367.42 5697.77 6344.73 5748.47C6344.3 5749.45 6343.86 5750.43 6343.42 5751.43C6327.8 5786.43 6307.77 5819.4 6282.74 5848.13C6281.88 5849.12 6281.03 5850.11 6280.15 5851.14C6268.85 5864.03 6257.08 5876.51 6243.74 5887.17C6242.03 5888.64 6240.32 5890.12 6238.62 5891.6C6196.06 5927.19 6143.02 5949.59 6088.75 5957.03C6088.11 5957.12 6087.48 5957.21 6086.82 5957.3C6072.96 5959.16 6059.21 5959.46 6045.26 5959.41C6043.6 5959.41 6043.6 5959.41 6041.92 5959.4C6025.34 5959.35 6009.13 5958.87 5992.76 5956.01C5991.56 5955.8 5990.35 5955.6 5989.11 5955.39C5924.13 5944.13 5863.07 5915.67 5812.78 5871.76C5811.69 5870.83 5810.61 5869.89 5809.53 5868.96C5795.52 5856.82 5781.59 5844.11 5769.65 5829.79C5767.43 5827.17 5765.14 5824.62 5762.84 5822.06C5758.25 5816.87 5753.97 5811.53 5749.78 5806C5748.73 5804.65 5747.68 5803.29 5746.63 5801.93C5738.17 5790.96 5730.32 5779.66 5722.78 5767.99C5722.32 5767.28 5721.85 5766.56 5721.38 5765.83C5712.94 5752.86 5705.34 5739.4 5697.79 5725.87C5697.33 5725.06 5696.88 5724.26 5696.42 5723.43C5690.83 5713.46 5685.63 5703.35 5680.79 5692.99C5680.28 5691.91 5679.77 5690.82 5679.25 5689.7C5648.75 5624.18 5627.39 5554.89 5611.52 5484.22C5611.32 5483.36 5611.13 5482.51 5610.93 5481.63C5606.76 5463.02 5602.95 5444.34 5599.26 5425.63C5598.71 5422.89 5598.17 5420.15 5597.63 5417.4C5595 5404.13 5592.39 5390.85 5589.79 5377.57C5589.55 5376.35 5589.55 5376.35 5589.31 5375.09C5577.15 5312.9 5565.95 5250.51 5554.59 5188.15C5528.95 5046.41 5528.95 5046.41 5480.74 4811.67C5480.56 4810.85 5480.38 4810.03 5480.19 4809.18C5479.65 4806.82 5479.09 4804.5 5478.42 4802.19C5478.28 4801.7 5477.59 4801.76 5477.53 4802.26C5466.28 4887.94 5452.97 4973.17 5390.81 5246.07C5390.51 5247.13 5390.22 5248.19 5389.92 5249.29C5380.53 5283.02 5370.49 5316.51 5359.81 5349.83C5359.45 5350.96 5359.09 5352.09 5358.72 5353.25C5331.93 5436.8 5300.74 5518.79 5264.63 5598.57C5263.12 5601.91 5261.61 5605.26 5260.11 5608.62C5258.69 5611.81 5257.25 5614.99 5255.82 5618.18C5255.33 5619.28 5254.84 5620.37 5254.33 5621.5C5250.66 5629.65 5246.78 5637.67 5242.85 5645.69C5241.19 5649.08 5239.54 5652.49 5237.89 5655.89C5231.12 5669.88 5224.34 5683.87 5217.15 5697.64C5215.62 5700.56 5214.11 5703.5 5212.6 5706.43C5206.32 5718.55 5199.86 5730.52 5193.07 5742.34C5188.94 5749.55 5184.95 5756.82 5181.01 5764.14C5170.15 5784.24 5158.33 5803.79 5146.29 5823.17C5144.8 5825.57 5143.33 5827.99 5141.86 5830.4C5122.1 5862.81 5100.76 5894.29 5078.84 5925.18C5078.27 5925.98 5077.71 5926.77 5077.13 5927.59C5069.1 5938.91 5060.88 5950.07 5052.45 5961.09C5050.95 5963.05 5049.46 5965.01 5047.97 5966.97C5041.52 5975.46 5034.94 5983.83 5028.32 5992.16C5027.01 5993.81 5025.71 5995.45 5024.4 5997.1C5019.97 6002.69 5015.47 6008.22 5010.93 6013.71C5008.01 6017.23 5005.16 6020.79 5002.34 6024.39C4998.22 6029.6 4993.85 6034.53 4989.41 6039.45C4986.74 6042.42 4984.15 6045.45 4981.57 6048.5C4974.97 6056.26 4968.17 6063.85 4961.37 6071.43C4960.33 6072.59 4959.29 6073.75 4958.25 6074.92C4950.83 6083.21 4943.26 6091.31 4935.44 6099.2C4932.28 6102.39 4929.26 6105.63 4926.37 6109.09C4922.81 6113.34 4918.92 6117.12 4914.91 6120.9C4908.25 6127.26 4901.75 6133.76 4895.38 6140.43C4891.68 6144.29 4887.86 6147.92 4883.87 6151.45C4880.44 6154.53 4877.16 6157.76 4873.85 6160.97C4869.2 6165.5 4864.49 6169.94 4859.65 6174.26C4857.42 6176.26 4855.23 6178.31 4853.04 6180.37C4848.75 6184.34 4844.33 6188.11 4839.84 6191.84C4836.45 6194.71 4833.12 6197.64 4829.79 6200.59C4825.13 6204.72 4820.41 6208.77 4815.58 6212.69C4813.5 6214.39 4811.44 6216.11 4809.39 6217.84C4800.47 6225.39 4791.34 6232.6 4782.07 6239.68C4778.55 6242.37 4775.06 6245.09 4771.59 6247.84C4761.8 6255.59 4751.91 6263.06 4741.65 6270.13C4738.42 6272.35 4735.26 6274.65 4732.11 6276.99C4723.5 6283.37 4714.69 6289.4 4705.8 6295.37C4705.03 6295.89 4704.27 6296.41 4703.47 6296.94C4691.39 6305.07 4679.25 6313.09 4666.87 6320.74C4665.85 6321.37 4664.83 6322 4663.78 6322.65C4647.65 6332.6 4631.37 6342.26 4614.87 6351.56C4613.81 6352.16 4612.74 6352.76 4611.64 6353.38C4597.32 6361.43 4582.84 6369.14 4568.25 6376.66C4567.51 6377.05 4566.78 6377.43 4566.02 6377.82C4557.26 6382.35 4548.43 6386.65 4539.45 6390.7C4534.72 6392.83 4530.02 6395.04 4525.35 6397.31C4468.25 6424.94 4407.68 6446.38 4346.89 6463.54C4346.06 6463.78 4345.22 6464.02 4344.35 6464.26C4254.03 6489.83 4160.78 6505.41 4067.14 6509.68C4065.54 6509.75 4063.95 6509.83 4062.36 6509.91C4041.92 6510.92 4021.5 6511.01 4001.05 6511C4000.19 6511 3999.33 6511 3998.44 6511C3971.22 6510.99 3944.09 6510.68 3916.93 6508.75C3914.98 6508.62 3913.03 6508.48 3911.09 6508.35C3813.15 6501.51 3715.65 6484.19 3596.41 6445.88C3593.99 6445.06 3591.56 6444.25 3589.14 6443.43C3518.29 6419.47 3448.76 6388.49 3383.64 6351.04C3380.79 6349.4 3377.93 6347.78 3375.06 6346.16C3360.23 6337.75 3345.7 6328.88 3331.28 6319.74C3328.29 6317.85 3325.28 6315.97 3322.28 6314.09C3309.15 6305.84 3296.36 6297.08 3283.6 6288.24C3282.76 6287.66 3281.92 6287.08 3281.06 6286.48C3269.2 6278.27 3257.53 6269.82 3245.98 6261.15C3245.04 6260.44 3244.1 6259.74 3243.13 6259.01C3226.34 6246.44 3209.74 6233.61 3193.68 6220.06C3190.14 6217.08 3186.54 6214.2 3182.93 6211.32C3176.64 6206.29 3170.64 6200.98 3164.65 6195.59C3161.24 6192.52 3157.78 6189.52 3154.3 6186.53C3148.96 6181.92 3143.81 6177.12 3138.69 6172.25C3136.5 6170.19 3134.3 6168.17 3132.05 6166.17C3127.41 6162.03 3122.91 6157.73 3118.4 6153.43C3116.23 6151.36 3114.06 6149.31 3111.86 6147.26C3104.72 6140.59 3097.85 6133.68 3091.08 6126.61C3087.8 6123.2 3084.5 6119.9 3080.95 6116.78C3076.83 6113.13 3073.17 6109.15 3069.5 6105.04C3063.31 6098.2 3056.98 6091.52 3050.49 6084.98C3046.75 6081.18 3043.23 6077.27 3039.8 6073.18C3036.63 6069.47 3033.31 6065.92 3030 6062.34C3022.79 6054.55 3015.91 6046.51 3009.13 6038.33C3005.58 6034.06 3002 6029.83 2998.32 6025.68C2994.52 6021.38 2990.93 6016.93 2987.38 6012.42C2984.84 6009.22 2982.24 6006.08 2979.63 6002.95C2974.87 5997.2 2970.31 5991.32 2965.81 5985.37C2963.48 5982.3 2961.11 5979.27 2958.73 5976.24C2952.12 5967.84 2945.82 5959.23 2939.54 5950.58C2936.69 5946.66 2933.8 5942.78 2930.88 5938.92C2925.3 5931.5 2919.99 5923.88 2914.67 5916.25C2913.08 5913.98 2911.47 5911.71 2909.85 5909.46C2901.64 5897.94 2893.92 5886.12 2886.26 5874.21C2883.87 5870.5 2881.45 5866.8 2879.04 5863.1C2869.17 5847.96 2859.42 5832.75 2850.01 5817.31C2849.49 5816.45 2848.96 5815.59 2848.42 5814.7C2829.41 5783.57 2811.46 5751.73 2794.48 5719.38C2793 5716.59 2791.51 5713.79 2790.02 5711C2777.12 5686.81 2764.75 5662.29 2753.31 5637.33C2751.37 5633.09 2749.34 5628.91 2747.27 5624.73C2715.55 5560.12 2688.98 5492.2 2665.22 5424.13C2664.07 5420.84 2662.91 5417.55 2661.74 5414.26C2622.81 5303.97 2591.5 5190.49 2564.04 5058.05C2563.79 5056.85 2563.55 5055.65 2563.3 5054.41C2550.91 4993.32 2540.38 4931.86 2531.46 4870.15C2529.41 4855.98 2509.47 4855.04 2506.51 4869.05C2505.97 4871.64 2505.42 4874.23 2504.87 4876.82C2486.14 4965.51 2469.5 5054.61 2447.8 5173.89C2447.66 5174.66 2447.52 5175.42 2447.37 5176.21C2446.53 5180.84 2445.69 5185.47 2444.85 5190.1C2409.49 5384.76 2409.49 5384.76 2340.06 5644.7C2339.57 5645.91 2339.08 5647.12 2338.57 5648.37C2322.97 5686.71 2304.95 5723.75 2283.06 5758.74C2282.62 5759.44 2282.19 5760.14 2281.74 5760.86C2266.34 5785.34 2248.97 5808.43 2229.68 5829.8C2227.28 5832.48 2224.92 5835.19 2222.56 5837.92C2215.82 5845.62 2208.74 5853 2201.06 5859.72C2199.67 5860.95 2198.3 5862.22 2196.95 5863.51C2189.77 5870.37 2182.05 5876.41 2174.2 5882.44C2172.23 5883.96 2170.27 5885.49 2168.31 5887.02C2112.16 5930.47 2039.56 5958.96 1968.89 5959.3C1967.87 5959.3 1966.84 5959.31 1965.79 5959.32C1923.18 5959.55 1923.18 5959.55 1904.09 5956.01C1902.96 5955.8 1901.82 5955.6 1900.65 5955.39C1840.7 5944.34 1786.14 5916.93 1741.65 5874.18C1739.58 5872.21 1737.47 5870.33 1735.29 5868.48C1732.13 5865.75 1729.52 5862.65 1726.85 5859.42C1725.21 5857.5 1723.52 5855.74 1721.73 5853.97C1717.61 5849.79 1714.02 5845.2 1710.41 5840.55C1709 5838.74 1707.57 5836.95 1706.15 5835.16C1700 5827.42 1694.36 5819.56 1689.11 5811.14C1688.3 5809.89 1687.48 5808.64 1686.67 5807.4C1636.96 5730.85 1613.93 5638.48 1607.11 5538.88C1607.04 5537.75 1606.97 5536.61 1606.9 5535.45C1601.6 5447.51 1616.63 5361.65 1737.91 4877.16C1739.55 4871.86 1741.16 4866.56 1742.75 4861.25C1748.63 4841.69 1754.84 4822.27 1761.21 4802.88C1762.15 4800.04 1763.08 4797.19 1764 4794.35C1794.17 4702.06 1827.82 4611.07 1888.62 4469.51C1890.2 4466.03 1891.77 4462.54 1893.34 4459.06C1910.56 4420.82 1928.34 4382.68 1947.74 4345.55C1949.36 4342.46 1950.96 4339.35 1952.56 4336.25C1959.96 4321.95 1967.52 4307.76 1975.35 4293.7C1976.9 4290.91 1978.44 4288.12 1979.99 4285.33C1992.08 4263.46 2004.41 4241.76 2017.38 4220.43C2019.13 4217.55 2020.87 4214.66 2022.6 4211.77C2031.41 4197.13 2040.6 4182.78 2049.94 4168.5C2051.94 4165.44 2053.93 4162.37 2055.91 4159.3C2062.68 4148.79 2069.58 4138.4 2076.71 4128.15C2078 4126.31 2079.28 4124.45 2080.55 4122.6C2098.68 4096.32 2117.77 4070.79 2137.6 4045.85C2138.89 4044.22 2140.18 4042.59 2141.47 4040.95C2147.04 4033.92 2152.76 4027.03 2158.52 4020.17C2160.05 4018.34 2161.57 4016.51 2163.08 4014.67C2168.56 4008.04 2174.14 4001.54 2179.91 3995.18C2182.62 3992.19 2185.28 3989.17 2187.88 3986.08C2190.53 3982.93 2193.34 3980 2196.23 3977.08C2197.99 3975.24 2199.62 3973.35 2201.25 3971.38C2205.17 3966.75 2209.33 3962.41 2213.56 3958.08C2214.35 3957.26 2215.15 3956.45 2215.96 3955.61C2217.63 3953.9 2219.29 3952.19 2220.96 3950.48C2223.5 3947.88 2226.02 3945.28 2228.55 3942.67C2230.18 3941 2231.81 3939.33 2233.44 3937.66C2234.18 3936.89 2234.93 3936.12 2235.7 3935.33C2239.76 3931.17 2243.9 3927.18 2248.26 3923.35C2251.39 3920.56 2254.37 3917.6 2257.37 3914.67C2262.6 3909.62 2267.91 3904.84 2273.52 3900.24C2276.11 3898.06 2278.59 3895.8 2281.06 3893.48C2290.62 3884.56 2300.86 3876.44 2311.06 3868.31C2312.23 3867.38 2312.23 3867.38 2313.43 3866.42C2324.91 3857.27 2336.54 3848.48 2348.63 3840.19C2351.15 3838.45 2353.66 3836.71 2356.17 3834.96C2367.51 3827.1 2379.01 3819.57 2390.69 3812.26C2392.84 3810.91 2394.99 3809.54 2397.14 3808.18C2404.53 3803.5 2412.07 3799.35 2419.87 3795.44C2422.68 3794.03 2425.45 3792.55 2428.19 3791.02C2485.28 3759.13 2548.96 3738.57 2613.22 3729.29C2614.27 3729.14 2615.31 3728.99 2616.39 3728.83C2636.47 3726.13 2656.54 3725.08 2676.78 3725.12C2677.91 3725.12 2679.04 3725.12 2680.21 3725.12C2702.08 3725.15 2723.01 3726.73 2744.12 3733.07C2746.17 3733.53 2747.4 3733.78 2748.87 3733.46C2750.36 3733.14 2751.65 3732.24 2752.82 3731.27C2753.63 3730.59 2754.16 3730.07 2755.65 3728.58C2756.53 3727.75 2757.41 3726.91 2758.31 3726.05C2759.21 3725.19 2760.1 3724.33 2761.02 3723.45C2766.89 3717.92 2772.86 3712.6 2779.05 3707.46C2782.36 3704.67 2785.59 3701.8 2788.83 3698.92C2795.11 3693.36 2801.55 3688.06 2808.1 3682.85C2810.15 3681.22 2812.19 3679.57 2814.23 3677.92C2837.09 3659.5 2860.72 3642.22 2885.01 3625.84C2885.69 3625.39 2886.36 3624.93 2887.06 3624.46C2905.24 3612.21 2923.64 3600.28 2942.56 3589.26C2945.15 3587.75 2947.73 3586.23 2950.31 3584.71C2969.31 3573.56 2988.52 3562.69 3008.16 3552.79C3011.94 3550.88 3015.72 3548.94 3019.49 3546.99C3043.02 3534.89 3066.7 3523.29 3090.92 3512.71C3093.02 3511.79 3095.12 3510.87 3097.22 3509.94C3171.5 3477.36 3248.46 3450.86 3336.16 3426.78C3337.17 3426.51 3338.18 3426.23 3339.23 3425.95C3350.56 3422.86 3361.91 3419.83 3373.27 3416.88C3374.3 3416.61 3375.33 3416.34 3376.39 3416.06C3377.34 3415.82 3378.29 3415.57 3379.27 3415.32C3380.52 3414.99 3380.52 3414.99 3381.81 3414.66C3384.62 3414.06 3386.97 3411.87 3386.97 3408.99C3386.97 3401.11 3386.97 3393.2 3386.97 3385.18C3386.97 3380.21 3382.94 3376.18 3377.97 3376.18C3375.86 3376.03 3373.76 3375.83 3371.66 3375.59C3370.48 3375.46 3369.3 3375.33 3368.09 3375.19C3366.2 3374.97 3366.2 3374.97 3364.27 3374.75C3362.9 3374.59 3361.54 3374.43 3360.17 3374.28C3356.47 3373.86 3352.76 3373.42 3349.06 3372.99C3346.71 3372.71 3344.35 3372.44 3342 3372.17C3263.2 3362.96 3184.68 3351.72 3026 3321.73C3024.82 3321.48 3023.63 3321.23 3022.41 3320.98C2947.15 3305.16 2872.48 3286.31 2799.02 3263.17C2798.21 3262.92 2797.41 3262.66 2796.58 3262.4C2784.69 3258.65 2772.85 3254.78 2761.02 3250.84C2760.14 3250.55 2759.26 3250.25 2758.36 3249.95C2698.8 3230.05 2640.38 3207.08 2583.35 3180.47C2580.2 3179 2577.05 3177.54 2573.9 3176.09C2572.01 3175.21 2570.11 3174.34 2568.22 3173.46C2567.42 3173.09 2566.62 3172.72 2565.79 3172.34C2557.76 3168.61 2549.91 3164.51 2542.04 3160.43C2541.35 3160.07 2540.66 3159.71 2539.95 3159.34C2521.47 3149.78 2503.19 3140.03 2485.47 3129.05C2483.28 3127.7 2481.08 3126.36 2478.88 3125.04C2464.07 3116.12 2449.89 3106.13 2436.05 3095.7C2435.43 3095.24 2434.81 3094.77 2434.17 3094.29C2423.48 3086.24 2413.2 3077.74 2403.05 3068.99C2402.44 3068.47 2401.84 3067.95 2401.22 3067.42C2386.93 3055.16 2373.6 3041.9 2360.43 3028.41C2359.5 3027.46 2358.58 3026.52 2357.63 3025.54C2352.56 3020.33 2347.72 3014.99 2343.06 3009.4C2341.6 3007.75 2340.14 3006.1 2338.68 3004.45C2333.95 2999.06 2329.49 2993.48 2325.06 2987.82C2324.14 2986.67 2323.23 2985.52 2322.31 2984.37C2262.31 2908.46 2220.68 2817.28 2189.55 2602.77C2189.26 2600.84 2187.74 2599.27 2185.81 2598.99C2114.74 2588.72 2049.4 2566.29 1995.08 2516.24C1994.32 2515.54 1994.32 2515.54 1993.54 2514.83C1982.75 2504.95 1972.22 2494.73 1963.24 2483.07C1961.03 2480.21 1958.72 2477.46 1956.4 2474.7C1944.76 2460.3 1935.1 2444.63 1926.38 2428.24C1925.24 2426.12 1924.09 2424.01 1922.92 2421.91C1898.68 2377.74 1886.92 2324.48 1886.95 2274.07C1886.95 2272.6 1886.95 2271.13 1886.94 2269.67C1886.93 2265.68 1886.93 2261.69 1886.93 2257.7C1886.93 2253.37 1886.92 2249.05 1886.92 2244.73C1886.9 2235.3 1886.9 2225.87 1886.89 2216.44C1886.89 2210.54 1886.88 2204.64 1886.88 2198.74C1886.87 2182.35 1886.86 2165.97 1886.85 2149.59C1886.85 2148.54 1886.85 2147.5 1886.85 2146.42C1886.85 2145.37 1886.85 2144.32 1886.85 2143.24C1886.85 2141.12 1886.85 2138.99 1886.85 2136.87C1886.85 2135.81 1886.85 2134.76 1886.85 2133.67C1886.85 2116.63 1886.83 2099.58 1886.81 2082.53C1886.78 2064.97 1886.77 2047.42 1886.77 2029.86C1886.77 2020.03 1886.76 2010.19 1886.74 2000.36C1886.73 1991.97 1886.72 1983.59 1886.73 1975.21C1886.74 1970.95 1886.73 1966.69 1886.72 1962.43C1886.47 1883.02 1909.09 1804.66 1960.09 1743.63C1961.33 1742.07 1961.33 1742.07 1962.6 1740.48C1974.63 1725.5 1988.08 1711.3 2003.08 1699.45C2004.79 1697.98 2006.5 1696.5 2008.21 1695.02C2022.23 1683.3 2037.39 1673.68 2053.08 1664.52C2053.8 1664.09 2054.53 1663.66 2055.28 1663.22C2093.12 1640.91 2135.72 1631.21 2178.38 1624.56C2179.48 1624.38 2179.48 1624.38 2180.6 1624.21C2182.53 1623.91 2184.39 1623.66 2186.29 1623.53C2187.82 1623.42 2189.05 1622.18 2189.04 1620.65C2188.23 1538.07 2199.19 1455.69 2231.06 1372.74C2231.46 1371.73 2231.85 1370.71 2232.26 1369.67C2244.59 1338.2 2259.05 1306.72 2276.86 1278.1C2278.32 1275.73 2279.76 1273.36 2281.2 1270.98C2288.72 1258.65 2296.61 1246.73 2305.06 1235.06C2305.87 1233.94 2306.68 1232.81 2307.48 1231.69C2319.33 1215.29 2331.86 1199.59 2345.39 1184.63C2346.76 1183.09 2348.14 1181.54 2349.46 1179.94C2354.88 1173.41 2360.77 1167.39 2366.68 1161.34C2368.49 1159.49 2370.29 1157.63 2372.09 1155.77C2377.91 1149.79 2383.77 1143.96 2390.05 1138.49C2391.66 1136.99 2393.26 1135.5 2394.86 1133.99C2400.11 1129.13 2405.55 1124.55 2411.05 1119.99C2412.18 1119.04 2413.32 1118.09 2414.45 1117.14C2439.04 1096.57 2465.66 1078.83 2493.04 1062.46C2493.8 1062.01 2494.55 1061.56 2495.32 1061.09C2565.82 1019.1 2642.73 987.179 2719.5 959.599C2722.06 958.68 2724.62 957.758 2727.17 956.835C2819.73 923.513 2914.98 898.304 3344.72 823.586C3349.33 823.031 3353.94 822.474 3358.56 821.916C3359.3 821.826 3360.04 821.736 3360.81 821.643C3361.79 821.525 3362.77 821.407 3363.75 821.288C3365.09 821.126 3366.21 820.164 3366.56 818.857C3377.92 777.293 3394.28 738.924 3421.97 705.949C3422.61 705.172 3423.26 704.395 3423.93 703.594C3434.98 690.624 3446.86 678.375 3460.37 668.124C3461.9 666.959 3463.4 665.762 3464.9 664.564C3478.08 654.111 3492.23 645.354 3506.87 637.252C3508.77 636.191 3510.66 635.108 3512.55 634.015C3545.1 615.507 3581.31 603.54 3617.07 593.466C3618.83 592.97 3620.59 592.468 3622.35 591.966C3686.44 573.893 3753.54 565.461 3819.69 560.235C3821.98 560.054 3824.27 559.868 3826.56 559.681C3920.91 552.105 4016.41 551.133 4110.91 555.948Z" fill="#D6DAE2"/>
<path d="M3929.82 1371.87C3935.77 1371.87 3941.72 1371.87 3947.67 1371.86C3960.17 1371.86 3972.66 1371.86 3985.16 1371.87C3995.76 1371.87 4006.36 1371.87 4016.95 1371.87C4029.42 1371.86 4041.89 1371.86 4054.36 1371.86C4060.9 1371.87 4067.44 1371.87 4073.98 1371.86C4114.15 1371.85 4154.28 1372.34 4194.42 1373.83C4196.57 1373.91 4198.72 1373.99 4200.87 1374.06C4207.64 1374.31 4214.41 1374.56 4221.19 1374.81C4223.57 1374.9 4225.95 1374.99 4228.33 1375.08C4319.05 1378.45 4409.52 1383.47 4578.45 1398.94C4586.07 1399.79 4593.68 1400.6 4601.3 1401.39C4655.73 1407.05 4709.92 1414.69 4764 1423C4765.04 1423.16 4766.08 1423.32 4767.15 1423.48C4827.13 1432.68 4886.76 1443.84 4946 1457C4947.63 1457.36 4947.63 1457.36 4949.3 1457.73C4968.53 1461.99 4987.67 1466.55 5006.77 1471.36C5008.85 1471.89 5010.94 1472.41 5013.03 1472.93C5041.62 1480.11 5070.18 1487.32 5098.4 1495.9C5101.58 1496.87 5104.77 1497.83 5107.97 1498.79C5171.58 1517.88 5234.15 1539.72 5294.91 1566.63C5297.62 1567.83 5300.34 1569.02 5303.06 1570.21C5340.46 1586.63 5378.43 1604.62 5412 1628C5412.81 1628.56 5412.81 1628.56 5413.63 1629.13C5436.03 1644.73 5456.54 1662.51 5475.88 1681.75C5476.58 1682.45 5477.28 1683.14 5478 1683.86C5482.54 1688.41 5486.82 1693.12 5491 1698C5491.89 1699.02 5492.78 1700.04 5493.67 1701.06C5511.84 1722.25 5527.63 1745.5 5541 1770C5541.48 1770.88 5541.97 1771.77 5542.47 1772.68C5561.97 1808.58 5576.05 1846.92 5584 1887C5584.15 1887.74 5584.3 1888.48 5584.45 1889.24C5586.02 1897.04 5587.34 1904.88 5588.56 1912.75C5588.68 1913.47 5588.79 1914.2 5588.91 1914.95C5589.31 1917.63 5589.66 1920.31 5590 1923C5590.17 1924.26 5590.33 1925.51 5590.5 1926.81C5592.36 1942.13 5592.28 1957.45 5592.26 1972.85C5592.25 1976.88 5592.26 1980.91 5592.26 1984.94C5592.27 1991.99 5592.27 1999.04 5592.27 2006.08C5592.26 2016.56 5592.26 2027.04 5592.27 2037.52C5592.28 2056.24 5592.28 2074.97 5592.27 2093.69C5592.27 2110.08 5592.27 2126.47 5592.27 2142.86C5592.27 2143.95 5592.27 2145.03 5592.27 2146.16C5592.27 2150.58 5592.27 2154.99 5592.27 2159.41C5592.28 2200.85 5592.27 2242.29 5592.26 2283.72C5592.25 2320.5 5592.25 2357.27 5592.26 2394.04C5592.27 2435.39 5592.28 2476.75 5592.27 2518.1C5592.27 2522.51 5592.27 2526.93 5592.27 2531.34C5592.27 2532.43 5592.27 2533.51 5592.27 2534.63C5592.26 2551 5592.27 2567.37 5592.27 2583.74C5592.28 2602.37 5592.28 2621 5592.27 2639.63C5592.26 2650.04 5592.26 2660.45 5592.27 2670.86C5592.27 2677.83 5592.27 2684.8 5592.26 2691.77C5592.26 2695.73 5592.25 2699.69 5592.26 2703.65C5592.29 2721.85 5591.7 2739.87 5590 2758C5589.77 2760.56 5589.55 2763.12 5589.33 2765.68C5588.42 2775.51 5586.54 2785.09 5584.47 2794.74C5583.81 2797.9 5583.26 2801.07 5582.69 2804.25C5577.1 2832.07 5567.3 2860.43 5554.96 2885.99C5553.96 2888.09 5553 2890.2 5552.05 2892.32C5534.84 2930.25 5510 2964.36 5482 2995C5481.08 2996.01 5480.16 2997.03 5479.24 2998.04C5472.51 3005.44 5465.73 3012.6 5458.14 3019.13C5455.85 3021.13 5453.62 3023.19 5451.38 3025.25C5445.17 3030.83 5438.63 3035.94 5432 3041C5431.3 3041.54 5430.59 3042.08 5429.87 3042.63C5411.89 3056.33 5392.97 3068.41 5373 3079C5372.12 3079.47 5371.25 3079.93 5370.34 3080.41C5351.87 3090.19 5333.32 3099.82 5314.15 3108.18C5310.29 3109.86 5306.49 3111.63 5302.69 3113.44C5243.47 3141.32 5179.67 3164.74 5116.58 3182.27C5112.16 3183.52 5107.77 3184.86 5103.38 3186.19C5096.75 3188.18 5090.12 3190.13 5083.46 3192.01C5080.99 3192.72 5078.53 3193.44 5076.07 3194.18C5067.5 3196.75 5058.91 3199.07 5050.22 3201.2C5045.55 3202.35 5040.92 3203.57 5036.31 3204.94C5028.66 3207.18 5020.91 3208.98 5013.14 3210.81C5007.23 3212.2 5001.37 3213.69 4995.52 3215.31C4986.71 3217.73 4977.89 3219.92 4968.89 3221.44C4965.32 3222.13 4961.82 3223.03 4958.31 3223.94C4952.9 3225.33 4947.5 3226.51 4942 3227.5C4936.86 3228.42 4931.85 3229.5 4926.79 3230.83C4917.04 3233.32 4907.19 3235.29 4897.31 3237.25C4896.35 3237.44 4895.38 3237.63 4894.39 3237.83C4875.04 3241.68 4855.63 3245.17 4836.2 3248.56C4829.85 3249.67 4823.51 3250.8 4817.17 3251.95C4816.3 3252.11 4815.42 3252.26 4814.52 3252.43C4811.19 3253.03 4807.86 3253.63 4804.52 3254.24C4793.04 3256.33 4781.54 3258.22 4770 3260C4769 3260.15 4768 3260.31 4766.97 3260.47C4755.97 3262.17 4744.96 3263.79 4733.95 3265.4C4731.55 3265.76 4729.15 3266.11 4726.75 3266.47C4712.92 3268.51 4699.09 3270.39 4685.2 3271.93C4678.86 3272.64 4672.56 3273.47 4666.26 3274.46C4653.55 3276.44 4640.78 3277.93 4628 3279.44C4625.85 3279.69 4623.7 3279.95 4621.54 3280.2C4592.62 3283.62 4563.65 3286.49 4534.66 3289.22C4531.2 3289.55 4527.74 3289.87 4524.29 3290.2C4521.89 3290.43 4519.5 3290.65 4517.11 3290.87C4515.67 3291.01 4514.23 3291.14 4512.79 3291.28C4511.54 3291.39 4510.3 3291.51 4509.02 3291.63C4505.96 3291.9 4505.96 3291.9 4503 3293C4500.34 3293.17 4497.69 3293.29 4495.03 3293.39C4485.59 3293.8 4476.17 3294.49 4466.75 3295.23C4465.24 3295.35 4463.72 3295.47 4462.2 3295.59C4459.82 3295.78 4457.44 3295.97 4455.06 3296.16C4366.14 3303.2 4277.04 3307.6 4187.88 3310.19C4186.61 3310.22 4185.34 3310.26 4184.03 3310.3C4176.93 3310.5 4169.83 3310.68 4162.73 3310.84C4158.88 3310.93 4155.03 3311.02 4151.19 3311.13C4105.04 3312.37 4058.87 3312.19 4012.7 3312.18C4004.74 3312.18 3996.77 3312.19 3988.8 3312.21C3941.52 3312.28 3894.26 3312.17 3846.99 3311.07C3846.08 3311.05 3845.18 3311.03 3844.24 3311.01C3761.28 3309.08 3678.38 3305.48 3524.32 3294.52C3523.08 3294.42 3521.84 3294.32 3520.56 3294.21C3518.26 3294.02 3515.97 3293.83 3513.69 3293.63C3509.07 3293.25 3504.51 3292.96 3499.88 3293C3496 3293 3496 3293 3494 3292C3491.82 3291.72 3489.64 3291.5 3487.45 3291.29C3486.77 3291.23 3486.09 3291.17 3485.39 3291.1C3483.9 3290.96 3482.41 3290.82 3480.92 3290.69C3478.49 3290.46 3476.07 3290.24 3473.65 3290.01C3470.15 3289.68 3466.64 3289.35 3463.14 3289.02C3432.75 3286.16 3402.41 3283.04 3372.1 3279.42C3369.64 3279.13 3367.17 3278.83 3364.71 3278.54C3360.83 3278.08 3356.95 3277.61 3353.07 3277.14C3351.67 3276.97 3350.26 3276.8 3348.85 3276.63C3341.38 3275.74 3333.97 3274.71 3326.56 3273.43C3323.48 3272.91 3320.4 3272.52 3317.3 3272.18C3316.09 3272.04 3314.89 3271.9 3313.65 3271.76C3312.36 3271.61 3311.08 3271.46 3309.75 3271.31C3295.04 3269.6 3280.4 3267.53 3265.75 3265.37C3264.2 3265.15 3264.2 3265.15 3262.61 3264.91C3201.72 3255.96 3141.22 3245.1 3080.94 3232.69C3079.75 3232.44 3078.57 3232.2 3077.35 3231.95C3063.03 3229 3048.79 3225.81 3034.58 3222.35C3027.6 3220.65 3020.58 3219.1 3013.56 3217.56C3002.85 3215.18 2992.22 3212.54 2981.64 3209.62C2973.75 3207.45 2965.83 3205.45 2957.88 3203.5C2948.07 3201.08 2938.36 3198.44 2928.68 3195.56C2921.96 3193.56 2915.21 3191.68 2908.44 3189.87C2901.13 3187.91 2893.98 3185.72 2886.82 3183.25C2883.34 3182.08 2879.81 3181.1 2876.26 3180.12C2861.68 3176.13 2847.47 3171.1 2833.19 3166.14C2827.16 3164.05 2821.12 3162.01 2815.06 3160C2814.24 3159.72 2813.41 3159.45 2812.56 3159.17C2809.18 3158.05 2805.8 3156.94 2802.42 3155.83C2801.4 3155.5 2800.37 3155.16 2799.31 3154.81C2798.5 3154.55 2797.7 3154.29 2796.86 3154.02C2794.46 3153.16 2792.11 3152.25 2789.75 3151.29C2785.17 3149.45 2780.57 3147.7 2775.95 3145.97C2728.54 3128.23 2728.54 3128.23 2706.41 3117.62C2702.57 3115.8 2698.7 3114.08 2694.81 3112.37C2676.46 3104.26 2658.19 3095.96 2640.55 3086.37C2637.65 3084.81 2634.74 3083.29 2631.83 3081.76C2582.77 3055.92 2536.5 3020.78 2502 2977C2501.07 2975.86 2500.14 2974.73 2499.21 2973.59C2486.92 2958.54 2476.11 2942.59 2466 2926C2465.53 2925.23 2465.06 2924.47 2464.58 2923.68C2456.81 2910.87 2450.22 2897.62 2444 2884C2443.61 2883.15 2443.21 2882.29 2442.81 2881.42C2427.28 2847.64 2416.66 2810.51 2411.81 2773.69C2411.66 2772.52 2411.5 2771.35 2411.34 2770.14C2408.53 2747.37 2407.7 2724.67 2407.74 2701.75C2407.75 2697.76 2407.74 2693.78 2407.74 2689.8C2407.73 2682.85 2407.73 2675.89 2407.73 2668.94C2407.74 2658.6 2407.74 2648.26 2407.73 2637.91C2407.72 2619.44 2407.72 2600.96 2407.73 2582.48C2407.73 2566.31 2407.73 2550.13 2407.73 2533.96C2407.73 2532.88 2407.73 2531.81 2407.73 2530.7C2407.73 2526.34 2407.73 2521.97 2407.73 2517.6C2407.72 2476.7 2407.73 2435.79 2407.74 2394.88C2407.75 2358.59 2407.75 2322.3 2407.74 2286.01C2407.73 2245.18 2407.72 2204.35 2407.73 2163.52C2407.73 2159.16 2407.73 2154.8 2407.73 2150.44C2407.73 2149.37 2407.73 2148.29 2407.73 2147.19C2407.74 2131.03 2407.73 2114.88 2407.73 2098.72C2407.72 2080.34 2407.72 2061.96 2407.73 2043.57C2407.74 2033.3 2407.74 2023.03 2407.73 2012.76C2407.73 2005.88 2407.73 1999 2407.74 1992.12C2407.74 1988.21 2407.75 1984.3 2407.74 1980.4C2407.65 1931.52 2413.38 1884.48 2429 1838C2429.32 1837.06 2429.63 1836.12 2429.96 1835.15C2450.97 1773.3 2486.88 1719.2 2532.75 1673.12C2533.45 1672.42 2534.14 1671.72 2534.86 1671C2539.41 1666.46 2544.12 1662.18 2549 1658C2549.96 1657.15 2550.93 1656.31 2551.92 1655.44C2617.84 1598.63 2703.23 1564.72 2871 1504.9C2875.04 1503.69 2879.08 1502.45 2883.11 1501.21C2887.74 1499.8 2892.37 1498.4 2897 1497C2898.13 1496.66 2898.13 1496.66 2899.27 1496.31C2908.74 1493.44 2918.25 1490.83 2927.84 1488.41C2934.19 1486.78 2940.49 1485 2946.79 1483.18C2958.2 1479.9 2969.68 1476.92 2981.19 1474C2982.22 1473.74 2983.25 1473.48 2984.31 1473.21C2998.74 1469.54 3013.17 1465.95 3027.71 1462.73C3030.74 1462.06 3033.77 1461.37 3036.8 1460.69C3076.49 1451.7 3116.32 1443.51 3156.41 1436.46C3159.76 1435.86 3163.12 1435.27 3166.47 1434.67C3177.31 1432.73 3188.15 1430.85 3199 1429C3199.88 1428.85 3200.76 1428.7 3201.67 1428.54C3276.11 1415.82 3351.07 1406.05 3426.19 1398.29C3429.08 1397.99 3431.96 1397.69 3434.85 1397.39C3522.81 1388.2 3611.13 1382 3800.06 1373.87C3801.3 1373.84 3802.54 1373.8 3803.82 1373.76C3812.1 1373.5 3820.38 1373.28 3828.67 1373.06C3831.02 1373 3833.36 1372.94 3835.71 1372.87C3867.08 1372.04 3898.44 1371.85 3929.82 1371.87Z" fill="#132D3C"/>
<path d="M2564 5091C2570.26 5092.25 2576.19 5093.96 2582.19 5096.12C2583.06 5096.43 2583.92 5096.74 2584.82 5097.06C2589.2 5098.62 2593.57 5100.2 2597.93 5101.82C2612.93 5107.36 2628.09 5112.42 2643.27 5117.44C2652.75 5120.58 2662.22 5123.74 2671.69 5126.89C2674.54 5127.85 2677.39 5128.8 2680.24 5129.75C2681.15 5130.05 2682.05 5130.35 2682.98 5130.66C2684.75 5131.25 2686.53 5131.84 2688.31 5132.43C2692.55 5133.85 2696.8 5135.27 2701.04 5136.69C2701.84 5136.96 2702.65 5137.23 2703.47 5137.51C2704.96 5138.01 2706.45 5138.51 2707.94 5139.01C2712.76 5140.62 2717.61 5142.09 2722.5 5143.5C2728.27 5145.17 2733.99 5146.95 2739.69 5148.87C2754.4 5153.83 2769.16 5158.54 2784.1 5162.73C2790.45 5164.52 2796.73 5166.47 2803 5168.5C2812.7 5171.63 2822.47 5174.46 2832.28 5177.23C2837.07 5178.59 2841.85 5179.98 2846.63 5181.37C2847.62 5181.67 2848.62 5181.96 2849.65 5182.26C2856.06 5184.13 2862.47 5186.03 2868.87 5187.93C2892.72 5195.03 2916.64 5201.77 2940.71 5208.08C2946.75 5209.66 2952.78 5211.28 2958.81 5212.9C2982.57 5219.27 3006.38 5225.42 3030.25 5231.37C3030.92 5231.54 3031.58 5231.71 3032.27 5231.88C3061.63 5239.21 3091.01 5246.37 3120.56 5252.87C3121.27 5253.03 3121.98 5253.19 3122.71 5253.35C3182.73 5266.56 3242.88 5278.52 3303.54 5288.44C3304.47 5288.6 3305.39 5288.75 3306.35 5288.9C3310.72 5289.62 3315.09 5290.33 3319.46 5291.03C3320.99 5291.28 3322.52 5291.53 3324.05 5291.78C3324.75 5291.89 3325.44 5292 3326.16 5292.11C3330.89 5292.89 3330.89 5292.89 3332 5294C3332.1 5296.21 3332.12 5298.43 3332.12 5300.65C3332.12 5301.35 3332.12 5302.06 3332.12 5302.78C3332.12 5305.15 3332.12 5307.53 3332.11 5309.9C3332.11 5311.6 3332.11 5313.29 3332.11 5314.99C3332.11 5319.6 3332.11 5324.22 3332.1 5328.83C3332.1 5333.65 3332.09 5338.47 3332.09 5343.29C3332.09 5352.42 3332.08 5361.55 3332.07 5370.68C3332.06 5381.07 3332.06 5391.46 3332.05 5401.85C3332.04 5423.23 3332.02 5444.62 3332 5466C3332.65 5466.06 3333.3 5466.12 3333.97 5466.18C3338.77 5466.64 3343.5 5467.17 3348.25 5468.09C3349.94 5468.41 3349.94 5468.41 3351.67 5468.74C3352.86 5468.97 3354.06 5469.2 3355.29 5469.44C3357.24 5469.81 3359.2 5470.19 3361.15 5470.56C3363.22 5470.95 3365.28 5471.35 3367.35 5471.74C3437.7 5485.22 3508.6 5495.72 3579.66 5504.7C3581.97 5505 3584.29 5505.29 3586.6 5505.59C3667.07 5515.95 3748.14 5522.44 3902.29 5529.79C3906.84 5529.93 3911.39 5530.09 3915.94 5530.27C3941.26 5531.21 3966.58 5531.15 3991.91 5531.13C3998.32 5531.12 4004.73 5531.13 4011.14 5531.13C4039.05 5531.15 4066.95 5531.03 4094.85 5530.07C4096.99 5530 4099.14 5529.93 4101.28 5529.86C4111.08 5529.53 4120.89 5529.16 4130.69 5528.75C4131.43 5528.72 4132.18 5528.69 4132.94 5528.66C4170.34 5527.11 4207.67 5524.73 4245 5522C4245.68 5521.95 4246.37 5521.9 4247.07 5521.85C4336.37 5515.34 4425.41 5505.1 4647.03 5469C4648.07 5468.79 4649.12 5468.59 4650.2 5468.38C4652.14 5468.01 4654.08 5467.63 4656.01 5467.24C4656.87 5467.08 4657.72 5466.91 4658.6 5466.74C4659.33 5466.6 4660.07 5466.45 4660.82 5466.31C4663 5466 4663 5466 4668 5466C4668 5409.24 4668 5352.48 4668 5294C4672.18 5292.61 4675.57 5291.62 4679.82 5290.94C4681.52 5290.66 4681.52 5290.66 4683.26 5290.38C4684.49 5290.18 4685.72 5289.99 4686.98 5289.78C4688.98 5289.46 4690.97 5289.14 4692.96 5288.81C4695.08 5288.47 4697.21 5288.12 4699.34 5287.78C4774.12 5275.66 4848.27 5260.35 4922 5243C4923.37 5242.68 4923.37 5242.68 4924.77 5242.35C5005.85 5223.28 5086.22 5201.34 5228.64 5158.67C5230.57 5158.08 5232.5 5157.49 5234.43 5156.9C5266.26 5147.17 5297.86 5136.78 5329.43 5126.25C5333.29 5124.97 5337.15 5123.68 5341.01 5122.4C5364.15 5114.71 5387.24 5106.89 5410.25 5098.82C5411.11 5098.52 5411.96 5098.22 5412.85 5097.9C5414.43 5097.35 5416.01 5096.79 5417.59 5096.24C5419.73 5095.48 5421.86 5094.74 5424 5094C5424.8 5093.72 5425.61 5093.44 5426.43 5093.14C5427.23 5092.87 5428.03 5092.59 5428.85 5092.31C5429.94 5091.93 5429.94 5091.93 5431.04 5091.55C5433 5091 5433 5091 5436 5091C5435.48 5098.26 5434.5 5105.22 5432.91 5112.32C5432.59 5113.8 5432.59 5113.8 5432.26 5115.3C5431.53 5118.58 5430.8 5121.85 5430.06 5125.12C5429.81 5126.27 5429.55 5127.43 5429.28 5128.61C5417.9 5179.4 5405.33 5229.96 5391 5280C5390.71 5281.03 5390.41 5282.06 5390.11 5283.12C5380.72 5315.96 5370.68 5348.56 5360 5381C5359.64 5382.1 5359.28 5383.19 5358.91 5384.32C5332.12 5465.64 5300.93 5545.45 5264.81 5623.1C5263.3 5626.35 5261.79 5629.61 5260.29 5632.88C5258.86 5635.98 5257.43 5639.08 5256 5642.19C5255.26 5643.79 5255.26 5643.79 5254.51 5645.42C5250.83 5653.35 5246.95 5661.16 5243.03 5668.96C5241.36 5672.27 5239.72 5675.58 5238.07 5678.89C5231.29 5692.51 5224.51 5706.12 5217.33 5719.52C5215.8 5722.37 5214.29 5725.23 5212.77 5728.08C5206.49 5739.88 5200.03 5751.53 5193.24 5763.04C5189.11 5770.05 5185.13 5777.13 5181.19 5784.25C5170.32 5803.82 5158.5 5822.84 5146.46 5841.71C5144.97 5844.05 5143.5 5846.4 5142.03 5848.75C5122.27 5880.29 5100.93 5910.93 5079 5941C5078.44 5941.77 5077.88 5942.54 5077.3 5943.34C5069.26 5954.36 5061.04 5965.22 5052.61 5975.95C5051.12 5977.85 5049.62 5979.76 5048.13 5981.68C5041.69 5989.93 5035.1 5998.08 5028.48 6006.19C5027.17 6007.79 5025.87 6009.4 5024.56 6011C5020.13 6016.44 5015.63 6021.82 5011.09 6027.16C5008.17 6030.59 5005.32 6034.06 5002.5 6037.56C4998.38 6042.63 4994 6047.43 4989.56 6052.22C4986.9 6055.11 4984.3 6058.05 4981.73 6061.02C4975.13 6068.58 4968.33 6075.97 4961.53 6083.34C4960.48 6084.47 4959.44 6085.61 4958.4 6086.74C4950.98 6094.81 4943.42 6102.69 4935.59 6110.37C4932.44 6113.48 4929.41 6116.64 4926.52 6120C4922.96 6124.13 4919.08 6127.81 4915.06 6131.5C4908.4 6137.69 4901.9 6144.01 4895.53 6150.51C4891.83 6154.26 4888.01 6157.79 4884.02 6161.23C4880.59 6164.23 4877.3 6167.37 4874 6170.5C4869.35 6174.91 4864.64 6179.23 4859.8 6183.43C4857.56 6185.38 4855.38 6187.37 4853.19 6189.37C4848.9 6193.25 4844.48 6196.91 4839.99 6200.55C4836.59 6203.33 4833.26 6206.19 4829.94 6209.06C4825.27 6213.08 4820.56 6217.02 4815.72 6220.84C4813.64 6222.49 4811.58 6224.16 4809.53 6225.85C4800.61 6233.2 4791.48 6240.21 4782.21 6247.1C4778.69 6249.72 4775.2 6252.37 4771.73 6255.05C4761.94 6262.59 4752.05 6269.86 4741.79 6276.74C4738.56 6278.91 4735.39 6281.14 4732.24 6283.42C4723.63 6289.63 4714.82 6295.5 4705.94 6301.31C4705.17 6301.82 4704.4 6302.32 4703.61 6302.84C4691.52 6310.76 4679.39 6318.56 4667 6326C4665.98 6326.61 4664.96 6327.23 4663.91 6327.86C4647.78 6337.55 4631.5 6346.95 4615 6356C4613.93 6356.59 4612.87 6357.17 4611.77 6357.77C4597.44 6365.61 4582.97 6373.11 4568.38 6380.44C4567.64 6380.81 4566.9 6381.18 4566.14 6381.56C4557.38 6385.97 4548.55 6390.16 4539.57 6394.1C4534.84 6396.18 4530.14 6398.32 4525.47 6400.53C4468.36 6427.42 4407.79 6448.29 4347 6465C4346.16 6465.23 4345.32 6465.46 4344.46 6465.7C4254.13 6490.59 4160.87 6505.75 4067.22 6509.9C4065.63 6509.97 4064.03 6510.05 4062.44 6510.12C4042 6511.11 4021.58 6511.2 4001.12 6511.19C4000.27 6511.19 3999.41 6511.19 3998.52 6511.19C3971.3 6511.18 3944.17 6510.87 3917 6509C3915.05 6508.87 3913.1 6508.74 3911.16 6508.61C3813.21 6501.96 3715.71 6485.1 3596.46 6447.81C3594.03 6447.01 3591.61 6446.21 3589.18 6445.42C3518.33 6422.1 3448.79 6391.95 3383.67 6355.49C3380.82 6353.9 3377.95 6352.32 3375.09 6350.75C3360.25 6342.56 3345.73 6333.92 3331.31 6325.03C3328.31 6323.19 3325.31 6321.36 3322.3 6319.53C3309.17 6311.5 3296.39 6302.98 3283.62 6294.37C3282.79 6293.81 3281.95 6293.24 3281.08 6292.66C3269.22 6284.67 3257.55 6276.44 3246 6268C3244.59 6266.97 3244.59 6266.97 3243.15 6265.92C3226.36 6253.68 3209.75 6241.2 3193.7 6228.01C3190.16 6225.11 3186.55 6222.3 3182.94 6219.5C3176.66 6214.61 3170.65 6209.44 3164.66 6204.19C3161.25 6201.21 3157.79 6198.29 3154.31 6195.37C3148.97 6190.89 3143.82 6186.22 3138.7 6181.48C3136.51 6179.47 3134.31 6177.5 3132.06 6175.56C3127.42 6171.53 3122.92 6167.34 3118.41 6163.16C3116.24 6161.14 3114.06 6159.14 3111.87 6157.16C3104.73 6150.66 3097.85 6143.94 3091.09 6137.05C3087.81 6133.73 3084.5 6130.52 3080.96 6127.48C3076.84 6123.94 3073.17 6120.06 3069.5 6116.06C3063.31 6109.4 3056.99 6102.9 3050.49 6096.53C3046.75 6092.84 3043.23 6089.03 3039.8 6085.05C3036.63 6081.44 3033.31 6077.98 3030 6074.5C3022.79 6066.91 3015.91 6059.09 3009.13 6051.12C3005.58 6046.97 3001.99 6042.85 2998.31 6038.81C2994.51 6034.63 2990.93 6030.3 2987.38 6025.91C2984.83 6022.8 2982.23 6019.74 2979.63 6016.69C2974.87 6011.1 2970.31 6005.37 2965.8 5999.58C2963.47 5996.59 2961.1 5993.64 2958.72 5990.69C2952.12 5982.52 2945.81 5974.14 2939.53 5965.72C2936.69 5961.9 2933.8 5958.13 2930.88 5954.37C2925.29 5947.15 2919.98 5939.73 2914.66 5932.3C2913.07 5930.09 2911.46 5927.89 2909.84 5925.69C2901.63 5914.48 2893.91 5902.98 2886.25 5891.39C2883.85 5887.77 2881.44 5884.17 2879.03 5880.57C2869.15 5865.83 2859.41 5851.04 2850 5836C2849.47 5835.16 2848.95 5834.33 2848.41 5833.46C2829.39 5803.17 2811.44 5772.17 2794.46 5740.69C2792.98 5737.97 2791.49 5735.25 2790 5732.53C2777.1 5708.98 2764.73 5685.12 2753.29 5660.83C2751.34 5656.7 2749.32 5652.63 2747.25 5648.56C2715.52 5585.68 2688.95 5519.56 2665.19 5453.31C2664.04 5450.11 2662.88 5446.91 2661.71 5443.71C2623.98 5339.67 2593.63 5232.79 2569.06 5121.06C2568.67 5119.28 2568.67 5119.28 2568.27 5117.47C2567.54 5114.14 2566.82 5110.8 2566.1 5107.47C2565.88 5106.49 2565.67 5105.52 2565.45 5104.51C2564.47 5099.93 2563.74 5095.72 2564 5091Z" fill="#BBBFC9"/>
<path d="M2676.75 3799.62C2677.88 3799.62 2679.01 3799.62 2680.18 3799.62C2697.43 3799.65 2714.08 3800.33 2731 3804C2731.87 3804.19 2732.74 3804.37 2733.64 3804.57C2745.28 3807.14 2745.28 3807.14 2749 3809C2747.89 3812.32 2747.08 3813.01 2744.45 3815.18C2740.02 3818.94 2735.91 3822.95 2731.81 3827.06C2731.06 3827.81 2730.31 3828.55 2729.54 3829.32C2727.97 3830.9 2726.4 3832.47 2724.83 3834.04C2722.44 3836.43 2720.06 3838.81 2717.67 3841.2C2716.13 3842.73 2714.59 3844.27 2713.06 3845.81C2712.35 3846.51 2711.65 3847.21 2710.92 3847.94C2706.97 3851.91 2703.19 3855.97 2699.54 3860.22C2697.14 3862.99 2694.63 3865.64 2692.12 3868.31C2687.69 3873.08 2683.49 3877.98 2679.41 3883.06C2676.53 3886.57 2673.55 3889.97 2670.56 3893.37C2665.29 3899.42 2660.3 3905.62 2655.48 3912.04C2653.74 3914.34 2651.98 3916.63 2650.21 3918.92C2642.66 3928.72 2635.3 3938.58 2628.43 3948.87C2626.85 3951.22 2625.26 3953.57 2623.67 3955.92C2610.94 3974.79 2599.04 3994.1 2588 4014C2587.43 4015.02 2586.86 4016.05 2586.27 4017.1C2551.9 4079.23 2527.87 4145.76 2512.45 4214.98C2512.04 4216.8 2511.63 4218.62 2511.22 4220.44C2504.46 4250.81 2500.6 4282.02 2498 4313C2497.91 4314.1 2497.81 4315.2 2497.72 4316.33C2495.63 4341.81 2495.68 4367.29 2495.74 4392.84C2495.75 4396.42 2495.75 4400 2495.76 4403.59C2495.81 4444.06 2496.37 4484.49 2497.92 4524.93C2498 4527 2498.08 4529.07 2498.15 4531.13C2500.49 4593.53 2504.23 4655.9 2510.08 4718.07C2510.64 4724.01 2511.17 4729.95 2511.67 4735.9C2512.91 4750.62 2514.3 4765.31 2516.04 4779.99C2516.13 4780.73 2516.22 4781.47 2516.31 4782.23C2517.02 4788.21 2517.74 4794.19 2518.47 4800.17C2519.02 4804.71 2519.56 4809.25 2520.1 4813.78C2520.35 4815.85 2520.6 4817.92 2520.86 4819.99C2522.52 4834.02 2521.75 4845.8 2518.5 4859.46C2518.14 4861.04 2517.77 4862.63 2517.41 4864.22C2516.65 4867.52 2515.89 4870.81 2515.13 4874.1C2513.54 4880.98 2512.03 4887.87 2510.52 4894.77C2510.02 4897.03 2509.53 4899.29 2509.03 4901.56C2490 4988.29 2472.92 5075.37 2447.75 5209.75C2447.61 5210.5 2447.47 5211.24 2447.33 5212.01C2446.49 5216.52 2445.65 5221.02 2444.8 5225.53C2409.44 5414.99 2409.44 5414.99 2340 5668C2339.51 5669.18 2339.02 5670.36 2338.52 5671.57C2322.91 5708.89 2304.89 5744.94 2283 5779C2282.56 5779.68 2282.13 5780.36 2281.68 5781.06C2266.28 5804.88 2248.9 5827.36 2229.62 5848.16C2227.21 5850.77 2224.85 5853.41 2222.5 5856.06C2215.76 5863.56 2208.67 5870.74 2200.99 5877.28C2199.6 5878.48 2198.23 5879.72 2196.88 5880.97C2189.7 5887.65 2181.98 5893.53 2174.13 5899.4C2172.16 5900.88 2170.2 5902.37 2168.24 5903.85C2112.09 5946.15 2039.48 5973.88 1968.8 5974.2C1967.27 5974.21 1967.27 5974.21 1965.71 5974.22C1923.09 5974.45 1923.09 5974.45 1904 5971C1902.87 5970.8 1901.73 5970.6 1900.56 5970.4C1840.61 5959.65 1786.04 5932.96 1741.55 5891.36C1739.47 5889.44 1737.37 5887.61 1735.19 5885.81C1732.03 5883.15 1729.41 5880.14 1726.74 5876.99C1725.11 5875.12 1723.41 5873.41 1721.63 5871.69C1717.5 5867.62 1713.92 5863.15 1710.3 5858.62C1708.89 5856.87 1707.47 5855.12 1706.04 5853.38C1699.9 5845.84 1694.25 5838.19 1689 5830C1688.19 5828.78 1687.37 5827.57 1686.56 5826.36C1636.84 5751.85 1613.82 5661.95 1607 5565C1606.93 5563.9 1606.86 5562.8 1606.78 5561.66C1601.49 5476.07 1616.52 5392.5 1737.81 4920.93C1739.44 4915.78 1741.05 4910.61 1742.65 4905.44C1748.52 4886.41 1754.74 4867.51 1761.11 4848.63C1762.04 4845.87 1762.97 4843.1 1763.9 4840.33C1794.07 4750.51 1827.73 4661.95 1888.52 4524.16C1890.11 4520.77 1891.68 4517.38 1893.25 4513.98C1910.47 4476.77 1928.25 4439.65 1947.66 4403.51C1949.27 4400.49 1950.87 4397.47 1952.48 4394.45C1959.88 4380.53 1967.44 4366.72 1975.27 4353.04C1976.81 4350.32 1978.36 4347.61 1979.9 4344.89C1992 4323.61 2004.33 4302.49 2017.3 4281.72C2019.05 4278.92 2020.79 4276.11 2022.52 4273.3C2031.33 4259.05 2040.52 4245.08 2049.86 4231.18C2051.86 4228.2 2053.85 4225.21 2055.83 4222.22C2062.6 4212 2069.5 4201.89 2076.64 4191.91C2077.92 4190.11 2079.2 4188.31 2080.48 4186.5C2098.61 4160.93 2117.7 4136.08 2137.53 4111.8C2138.82 4110.22 2140.11 4108.63 2141.4 4107.03C2146.96 4100.18 2152.69 4093.49 2158.45 4086.8C2159.98 4085.02 2161.5 4083.24 2163.01 4081.45C2168.49 4075 2174.07 4068.68 2179.84 4062.49C2182.55 4059.58 2185.22 4056.64 2187.81 4053.62C2190.46 4050.56 2193.27 4047.71 2196.16 4044.87C2197.92 4043.08 2199.56 4041.23 2201.19 4039.32C2205.11 4034.81 2209.27 4030.59 2213.5 4026.37C2214.29 4025.58 2215.08 4024.78 2215.9 4023.97C2217.56 4022.3 2219.23 4020.64 2220.9 4018.97C2223.43 4016.44 2225.96 4013.91 2228.49 4011.38C2230.11 4009.75 2231.74 4008.12 2233.37 4006.5C2234.12 4005.75 2234.86 4005 2235.63 4004.23C2239.69 4000.18 2243.84 3996.3 2248.19 3992.57C2251.32 3989.85 2254.31 3986.98 2257.31 3984.12C2262.54 3979.21 2267.85 3974.55 2273.46 3970.07C2276.05 3967.96 2278.53 3965.75 2281 3963.5C2290.56 3954.81 2300.8 3946.91 2311 3939C2311.78 3938.39 2312.56 3937.78 2313.37 3937.16C2324.85 3928.25 2336.49 3919.69 2348.57 3911.62C2351.09 3909.94 2353.61 3908.24 2356.12 3906.54C2367.45 3898.89 2378.96 3891.55 2390.64 3884.44C2392.79 3883.13 2394.94 3881.8 2397.09 3880.47C2404.48 3875.92 2412.02 3871.88 2419.82 3868.07C2422.63 3866.7 2425.4 3865.26 2428.14 3863.77C2485.24 3832.73 2548.92 3812.72 2613.19 3803.69C2614.23 3803.54 2615.28 3803.39 2616.36 3803.24C2636.44 3800.61 2656.51 3799.59 2676.75 3799.62Z" fill="#C2C6D0"/>
<path d="M5322 3799.69C5323.15 3799.69 5324.3 3799.69 5325.49 3799.69C5344.18 3799.74 5362.46 3800.49 5381 3803C5382.27 3803.17 5383.54 3803.33 5384.85 3803.5C5458.98 3813.44 5530.96 3838.96 5595.55 3876.58C5597.75 3877.86 5599.97 3879.1 5602.2 3880.32C5633.22 3897.3 5662.09 3918.37 5690 3940C5690.62 3940.48 5691.24 3940.95 5691.87 3941.44C5699.07 3947 5706.09 3952.71 5712.96 3958.66C5716.42 3961.66 5719.93 3964.58 5723.5 3967.44C5728.5 3971.49 5733.2 3975.81 5737.88 3980.22C5740.79 3982.96 5743.73 3985.65 5746.75 3988.27C5759.11 3999.06 5770.77 4010.61 5782.35 4022.22C5784.59 4024.46 5786.83 4026.7 5789.08 4028.94C5790.53 4030.4 5791.99 4031.85 5793.44 4033.31C5794.1 4033.96 5794.76 4034.62 5795.43 4035.29C5799.27 4039.15 5802.91 4043.11 5806.46 4047.23C5808.24 4049.27 5810.07 4051.25 5811.94 4053.22C5812.94 4054.28 5812.94 4054.28 5813.96 4055.35C5814.63 4056.06 5815.31 4056.77 5816 4057.5C5821.13 4062.89 5826.14 4068.36 5831 4074C5831.49 4074.57 5831.98 4075.13 5832.48 4075.71C5833.88 4077.35 5835.29 4078.99 5836.69 4080.62C5837.73 4081.84 5838.77 4083.06 5839.81 4084.27C5840.33 4084.89 5840.86 4085.5 5841.4 4086.14C5842.98 4087.98 5844.57 4089.82 5846.16 4091.66C5851.15 4097.45 5856.09 4103.26 5860.82 4109.27C5862.52 4111.39 5864.23 4113.51 5865.96 4115.61C5871.94 4122.9 5877.78 4130.27 5883.4 4137.85C5887.23 4143.01 5891.16 4148.07 5895.12 4153.12C5900.5 4160 5905.66 4166.99 5910.68 4174.13C5912.14 4176.2 5913.63 4178.25 5915.12 4180.3C5915.67 4181.06 5916.22 4181.82 5916.78 4182.6C5917.83 4184.04 5918.87 4185.47 5919.92 4186.91C5929.3 4199.83 5938.15 4213.14 5947 4226.44C5947.48 4227.16 5947.96 4227.88 5948.46 4228.62C5972.21 4264.32 5994.79 4300.74 6016 4338C6016.55 4338.96 6017.09 4339.91 6017.65 4340.9C6021.46 4347.58 6025.24 4354.28 6029 4361C6029.93 4362.66 6029.93 4362.66 6030.88 4364.35C6039.65 4380.03 6048.12 4395.83 6056.3 4411.82C6058.68 4416.46 6061.1 4421.09 6063.54 4425.7C6069.27 4436.54 6074.83 4447.46 6080.31 4458.44C6080.77 4459.35 6081.23 4460.26 6081.7 4461.2C6088.86 4475.56 6095.77 4490 6102.43 4504.59C6104.09 4508.2 6105.78 4511.79 6107.49 4515.38C6117.77 4537.06 6127.48 4558.97 6137 4581C6137.36 4581.82 6137.71 4582.64 6138.08 4583.49C6170.76 4659.19 6200.25 4736.21 6227.03 4814.19C6228.03 4817.08 6229.03 4819.98 6230.03 4822.87C6257.95 4903.89 6282.78 4985.91 6389.25 5442.06C6389.4 5443.34 6389.55 5444.62 6389.71 5445.94C6390.19 5450.29 6390.61 5454.64 6391 5459C6391.13 5460.47 6391.13 5460.47 6391.27 5461.96C6392.96 5481.54 6393.32 5501 6393.26 5520.64C6393.25 5524.69 6393.26 5528.74 6393.27 5532.79C6393.33 5559.03 6392.31 5585.04 6388.69 5611.06C6388.58 5611.85 6388.47 5612.65 6388.36 5613.46C6381.06 5667.15 6367.68 5719.65 6345 5769C6344.57 5769.95 6344.13 5770.9 6343.68 5771.88C6328.07 5805.95 6308.04 5838.04 6283 5866C6282.14 5866.97 6281.29 5867.93 6280.41 5868.93C6269.11 5881.48 6257.34 5893.62 6244 5904C6242.29 5905.44 6240.58 5906.87 6238.88 5908.31C6196.31 5942.95 6143.27 5964.76 6089 5972C6088.36 5972.09 6087.72 5972.17 6087.06 5972.26C6073.21 5974.07 6059.46 5974.36 6045.5 5974.31C6044.4 5974.31 6043.29 5974.31 6042.16 5974.31C6025.58 5974.25 6009.37 5973.79 5993 5971C5991.8 5970.8 5990.59 5970.6 5989.35 5970.4C5924.37 5959.44 5863.3 5931.74 5813 5889C5811.92 5888.09 5810.84 5887.18 5809.75 5886.28C5795.75 5874.46 5781.82 5862.09 5769.88 5848.16C5767.65 5845.6 5765.36 5843.12 5763.06 5840.62C5758.47 5835.58 5754.19 5830.38 5750 5825C5748.95 5823.68 5747.9 5822.36 5746.85 5821.04C5738.38 5810.35 5730.54 5799.35 5723 5788C5722.3 5786.96 5722.3 5786.96 5721.59 5785.9C5713.15 5773.27 5705.55 5760.17 5698 5747C5697.55 5746.22 5697.1 5745.43 5696.63 5744.62C5691.05 5734.93 5685.84 5725.09 5681 5715C5680.49 5713.94 5679.99 5712.89 5679.46 5711.8C5648.96 5648.03 5627.6 5580.58 5611.72 5511.8C5611.53 5510.97 5611.34 5510.14 5611.14 5509.28C5606.97 5491.17 5603.16 5472.99 5599.46 5454.77C5598.92 5452.1 5598.38 5449.44 5597.83 5446.77C5595.2 5433.85 5592.6 5420.93 5590 5408C5589.84 5407.2 5589.68 5406.41 5589.52 5405.59C5577.36 5345.05 5566.15 5284.32 5554.79 5223.63C5529.15 5085.67 5529.15 5085.67 5482.18 4862.82C5481.97 4861.91 5481.76 4861 5481.54 4860.07C5481.16 4858.41 5480.77 4856.76 5480.38 4855.11C5477.77 4843.9 5477.59 4833.59 5479.07 4822.19C5479.3 4820.24 5479.54 4818.3 5479.78 4816.36C5479.91 4815.33 5480.03 4814.3 5480.16 4813.24C5490.69 4727.62 5497.12 4641.17 5503 4487C5503.05 4485.46 5503.05 4485.46 5503.1 4483.9C5503.98 4454.99 5504.12 4426.07 5504.18 4397.15C5504.19 4394.37 5504.2 4391.59 5504.21 4388.82C5504.33 4356.19 5503.53 4323.63 5499.81 4291.19C5499.71 4290.25 5499.6 4289.3 5499.49 4288.33C5490.14 4205.13 5467.03 4122.83 5429.45 4047.9C5428.22 4045.44 5427.01 4042.97 5425.8 4040.5C5395.67 3978.7 5355.17 3921.07 5308.99 3870.21C5307.24 3868.26 5305.52 3866.3 5303.81 3864.31C5293.66 3852.69 5282.84 3841.68 5271.92 3830.79C5269.84 3828.71 5267.76 3826.63 5265.69 3824.55C5264.35 3823.22 5263.02 3821.88 5261.68 3820.55C5260.76 3819.62 5260.76 3819.62 5259.82 3818.68C5257.48 3816.35 5255.24 3814.18 5252.58 3812.22C5251.8 3811.61 5251.8 3811.61 5251 3811C5251 3810.34 5251 3809.68 5251 3809C5257.28 3806.73 5263.5 3805.14 5270.06 3803.94C5270.89 3803.78 5271.72 3803.62 5272.57 3803.45C5275.37 3802.92 5278.18 3802.45 5281 3802C5282.11 3801.82 5283.22 3801.63 5284.37 3801.44C5296.89 3799.62 5309.37 3799.65 5322 3799.69Z" fill="#CED2DB"/>
<path d="M4612 3453C4612.07 3475.53 4612.12 3498.07 4612.16 3520.6C4612.17 3531.06 4612.19 3541.53 4612.23 3551.99C4612.26 3561.13 4612.28 3570.26 4612.28 3579.39C4612.29 3584.22 4612.3 3589.04 4612.32 3593.87C4612.61 3660.71 4594.2 3717.53 4549 3768C4548.01 3769.12 4548.01 3769.12 4547 3770.26C4541.4 3776.55 4535.58 3782.6 4529.62 3788.56C4528.76 3789.44 4527.89 3790.32 4526.99 3791.23C4521.72 3796.51 4516.27 3801.37 4510.45 3806.04C4508.5 3807.6 4506.59 3809.18 4504.71 3810.83C4485.25 3827.8 4463.16 3841.83 4441 3855C4440.23 3855.46 4439.47 3855.92 4438.68 3856.39C4367.7 3898.69 4287.3 3924.46 4056 3960C4055.15 3960.04 4054.31 3960.08 4053.44 3960.13C4035.98 3960.98 4018.54 3961.2 4001.06 3961.19C4000.05 3961.19 4000.05 3961.19 3999.03 3961.19C3916.66 3961.15 3834.63 3952.1 3552 3851C3550.58 3850.13 3550.58 3850.13 3549.13 3849.24C3510.82 3825.61 3471.45 3796.03 3444 3760C3442.73 3758.46 3441.46 3756.92 3440.19 3755.37C3407.34 3713.89 3387.84 3665.32 3387.85 3612.23C3387.85 3610.58 3387.85 3608.94 3387.84 3607.29C3387.84 3602.87 3387.83 3598.45 3387.83 3594.03C3387.83 3591.26 3387.83 3588.49 3387.83 3585.73C3387.82 3576.08 3387.81 3566.43 3387.81 3556.78C3387.82 3547.78 3387.8 3538.79 3387.79 3529.79C3387.78 3522.06 3387.77 3514.32 3387.77 3506.59C3387.77 3501.97 3387.77 3497.36 3387.76 3492.74C3387.75 3488.41 3387.75 3484.09 3387.76 3479.76C3387.76 3478.17 3387.75 3476.58 3387.75 3474.98C3387.74 3472.82 3387.74 3470.66 3387.75 3468.49C3387.75 3467.28 3387.75 3466.07 3387.75 3464.82C3388 3462 3388 3462 3390 3460C3392.84 3459.97 3392.84 3459.97 3396.49 3460.27C3397.16 3460.33 3397.82 3460.38 3398.51 3460.43C3400.67 3460.61 3402.84 3460.8 3405 3461C3406.41 3461.12 3407.82 3461.24 3409.23 3461.37C3413.02 3461.7 3416.81 3462.05 3420.61 3462.4C3425.03 3462.82 3429.46 3463.22 3433.89 3463.63C3434.83 3463.71 3435.76 3463.8 3436.73 3463.89C3529.8 3472.4 3623.1 3478.15 3828.58 3484.9C3831.4 3484.96 3834.23 3485.03 3837.05 3485.09C3879.29 3486.05 3921.54 3486.1 3963.79 3486.12C3968.23 3486.12 3972.67 3486.13 3977.11 3486.13C4033.37 3486.18 4089.63 3485.61 4145.87 3484.12C4147.5 3484.08 4149.12 3484.04 4150.74 3484C4239.86 3481.67 4328.89 3477.33 4450.83 3468.38C4452.02 3468.29 4453.22 3468.19 4454.45 3468.09C4456.6 3467.92 4458.76 3467.75 4460.91 3467.57C4465.32 3467.22 4469.66 3466.96 4474.07 3467.01C4477.79 3467.29 4477.79 3467.29 4480 3466C4482.54 3465.69 4485.06 3465.43 4487.6 3465.2C4488.39 3465.13 4489.17 3465.05 4489.98 3464.98C4492.6 3464.73 4495.22 3464.5 4497.84 3464.26C4499.68 3464.09 4501.52 3463.92 4503.35 3463.75C4508.22 3463.29 4513.1 3462.84 4517.97 3462.4C4526.59 3461.61 4535.22 3460.81 4543.84 3460.01C4544.77 3459.92 4545.69 3459.84 4546.64 3459.75C4559.12 3458.59 4571.58 3457.35 4584.03 3455.86C4589.06 3455.26 4593.92 3454.92 4599 3455C4603.3 3454.49 4607.71 3453 4612 3453Z" fill="#B7BBC5"/>
<path d="M5750 1746C5757.43 1746 5763.96 1746.03 5771.15 1747.17C5772.4 1747.36 5772.4 1747.36 5773.67 1747.55C5776.38 1747.96 5779.09 1748.39 5781.8 1748.82C5783.73 1749.11 5785.66 1749.41 5787.59 1749.71C5791.63 1750.33 5795.67 1750.96 5799.71 1751.6C5803.79 1752.24 5807.86 1752.87 5811.94 1753.49C5871.64 1762.59 5871.64 1762.59 5897.06 1771.87C5898.25 1772.3 5899.44 1772.72 5900.66 1773.15C5938.75 1786.91 5973.65 1807.09 6004 1834C6004.96 1834.85 6005.91 1835.69 6006.9 1836.56C6019.09 1847.54 6031.01 1858.96 6041 1872C6042.03 1873.31 6043.05 1874.62 6044.08 1875.93C6054.77 1889.63 6064.36 1903.91 6073 1919C6073.36 1919.62 6073.72 1920.25 6074.09 1920.89C6092.01 1952.45 6103.1 1987.54 6109.25 2023.19C6109.4 2024.05 6109.55 2024.91 6109.71 2025.8C6113.06 2046.52 6113.3 2067.28 6113.26 2088.2C6113.26 2092.34 6113.26 2096.49 6113.27 2100.63C6113.28 2108.72 6113.28 2116.81 6113.27 2124.9C6113.27 2131.48 6113.27 2138.07 6113.27 2144.65C6113.27 2145.59 6113.27 2146.53 6113.27 2147.51C6113.27 2149.42 6113.27 2151.33 6113.27 2153.25C6113.28 2171.15 6113.27 2189.04 6113.26 2206.94C6113.25 2222.24 6113.25 2237.55 6113.26 2252.85C6113.27 2270.69 6113.28 2288.52 6113.27 2306.36C6113.27 2308.27 6113.27 2310.17 6113.27 2312.08C6113.27 2313.02 6113.27 2313.96 6113.27 2314.92C6113.26 2321.49 6113.27 2328.05 6113.27 2334.61C6113.28 2342.63 6113.28 2350.64 6113.27 2358.66C6113.26 2362.74 6113.26 2366.82 6113.27 2370.89C6113.3 2393.24 6113.01 2415.58 6108.88 2437.62C6108.56 2439.35 6108.56 2439.35 6108.23 2441.1C6099.9 2484.33 6083.42 2526.84 6058 2563C6057.22 2564.13 6056.45 2565.26 6055.67 2566.39C6050.68 2573.57 6045.35 2580.33 6039.62 2586.94C6037.3 2589.62 6035.12 2592.39 6032.94 2595.19C6028.59 2600.53 6023.8 2605.38 6018.94 2610.25C6018.18 2611.01 6017.43 2611.76 6016.65 2612.54C6011.92 2617.22 6007.06 2621.68 6002 2626C6001.16 2626.73 6001.16 2626.73 6000.31 2627.47C5982.47 2642.93 5962.03 2656.31 5941 2667C5939.65 2667.7 5939.65 2667.7 5938.26 2668.41C5903.62 2686.15 5867.42 2695.49 5829.18 2701.5C5825.54 2702.07 5821.9 2702.65 5818.26 2703.23C5810.25 2704.51 5802.23 2705.77 5794.21 2707.03C5792.01 2707.37 5789.81 2707.72 5787.61 2708.07C5784.09 2708.63 5780.58 2709.17 5777.06 2709.71C5775.12 2710.01 5773.19 2710.32 5771.26 2710.63C5769.48 2710.9 5769.48 2710.9 5767.66 2711.18C5766.64 2711.34 5765.61 2711.5 5764.55 2711.66C5759.72 2712.12 5754.85 2712 5750 2712C5750 2393.22 5750 2074.44 5750 1746Z" fill="#C5C9D3"/>
<path d="M2190 1755C2190.33 2068.17 2190.66 2381.34 2191 2704C2104.75 2693.85 2018.65 2660.88 1963.16 2590.71C1960.94 2587.93 1958.63 2585.25 1956.31 2582.56C1944.67 2568.55 1935.02 2553.3 1926.29 2537.34C1925.15 2535.28 1924 2533.23 1922.83 2531.19C1898.59 2488.19 1886.83 2436.35 1886.86 2387.29C1886.86 2385.86 1886.85 2384.43 1886.85 2383C1886.84 2379.12 1886.84 2375.23 1886.84 2371.35C1886.84 2367.14 1886.83 2362.94 1886.82 2358.73C1886.81 2349.55 1886.8 2340.38 1886.8 2331.2C1886.8 2325.45 1886.79 2319.71 1886.79 2313.96C1886.78 2298.02 1886.77 2282.07 1886.76 2266.13C1886.76 2265.11 1886.76 2264.09 1886.76 2263.04C1886.76 2262.02 1886.76 2261 1886.76 2259.95C1886.76 2257.88 1886.76 2255.81 1886.76 2253.74C1886.76 2252.72 1886.76 2251.69 1886.76 2250.64C1886.76 2234.04 1886.74 2217.45 1886.71 2200.86C1886.69 2183.77 1886.68 2166.68 1886.68 2149.59C1886.68 2140.02 1886.67 2130.45 1886.65 2120.87C1886.64 2112.72 1886.63 2104.56 1886.64 2096.4C1886.64 2092.25 1886.64 2088.11 1886.63 2083.96C1886.38 2006.67 1909 1930.4 1960 1871C1960.83 1869.99 1961.66 1868.98 1962.51 1867.93C1974.55 1853.35 1988 1839.53 2003 1828C2004.71 1826.56 2006.42 1825.13 2008.13 1823.69C2022.14 1812.28 2037.31 1802.91 2053 1794C2054.09 1793.37 2054.09 1793.37 2055.2 1792.73C2088.79 1773.46 2127.02 1763.18 2165 1757.12C2165.68 1757.01 2166.36 1756.91 2167.06 1756.79C2169.02 1756.48 2170.98 1756.18 2172.94 1755.88C2174.06 1755.71 2175.18 1755.54 2176.34 1755.36C2180.87 1754.91 2185.45 1755 2190 1755Z" fill="#BFC3CD"/>
<path d="M2564 5091C2570.26 5092.27 2576.18 5093.96 2582.19 5096.12C2583.06 5096.43 2583.92 5096.74 2584.82 5097.06C2589.2 5098.62 2593.57 5100.2 2597.93 5101.82C2612.93 5107.36 2628.09 5112.42 2643.27 5117.44C2652.75 5120.58 2662.22 5123.74 2671.69 5126.89C2674.54 5127.85 2677.39 5128.8 2680.24 5129.75C2681.15 5130.05 2682.05 5130.35 2682.98 5130.66C2684.75 5131.25 2686.53 5131.84 2688.31 5132.43C2692.55 5133.85 2696.8 5135.27 2701.04 5136.69C2701.84 5136.96 2702.65 5137.23 2703.47 5137.51C2704.96 5138.01 2706.45 5138.51 2707.94 5139.01C2712.76 5140.62 2717.61 5142.09 2722.5 5143.5C2728.27 5145.17 2733.99 5146.95 2739.69 5148.87C2754.4 5153.83 2769.16 5158.54 2784.1 5162.73C2790.45 5164.52 2796.73 5166.47 2803 5168.5C2812.7 5171.63 2822.47 5174.46 2832.28 5177.23C2837.07 5178.59 2841.85 5179.98 2846.62 5181.37C2847.62 5181.67 2848.62 5181.96 2849.65 5182.26C2856.06 5184.13 2862.47 5186.03 2868.87 5187.93C2892.72 5195.03 2916.64 5201.77 2940.71 5208.08C2946.75 5209.66 2952.78 5211.28 2958.81 5212.9C2982.57 5219.27 3006.38 5225.42 3030.25 5231.37C3030.92 5231.54 3031.58 5231.71 3032.27 5231.88C3061.63 5239.21 3091.01 5246.37 3120.56 5252.87C3121.27 5253.03 3121.98 5253.19 3122.71 5253.35C3182.73 5266.56 3242.88 5278.52 3303.54 5288.44C3304.47 5288.6 3305.39 5288.75 3306.35 5288.9C3310.72 5289.62 3315.09 5290.33 3319.46 5291.03C3320.99 5291.28 3322.52 5291.53 3324.05 5291.78C3324.75 5291.89 3325.44 5292 3326.16 5292.11C3330.89 5292.89 3330.89 5292.89 3332 5294C3332.1 5296.21 3332.12 5298.43 3332.12 5300.65C3332.12 5301.35 3332.12 5302.06 3332.12 5302.78C3332.12 5305.15 3332.12 5307.53 3332.11 5309.9C3332.11 5311.6 3332.11 5313.29 3332.11 5314.99C3332.11 5319.6 3332.11 5324.22 3332.1 5328.83C3332.1 5333.65 3332.09 5338.47 3332.09 5343.29C3332.09 5352.42 3332.08 5361.55 3332.07 5370.68C3332.06 5381.07 3332.06 5391.46 3332.05 5401.85C3332.04 5423.23 3332.02 5444.62 3332 5466C3332.65 5466.06 3333.3 5466.12 3333.97 5466.18C3338.77 5466.64 3343.5 5467.17 3348.25 5468.09C3349.94 5468.41 3349.94 5468.41 3351.67 5468.74C3352.86 5468.97 3354.06 5469.2 3355.29 5469.44C3357.24 5469.81 3359.2 5470.19 3361.15 5470.56C3363.22 5470.95 3365.28 5471.35 3367.35 5471.74C3437.7 5485.22 3508.6 5495.72 3579.66 5504.7C3581.97 5505 3584.29 5505.29 3586.6 5505.59C3667.07 5515.95 3748.14 5522.44 3902.29 5529.79C3906.84 5529.93 3911.39 5530.09 3915.94 5530.27C3941.26 5531.21 3966.58 5531.15 3991.91 5531.13C3998.32 5531.12 4004.73 5531.13 4011.14 5531.13C4039.05 5531.15 4066.95 5531.03 4094.85 5530.07C4096.99 5530 4099.14 5529.93 4101.28 5529.86C4111.08 5529.53 4120.89 5529.16 4130.69 5528.75C4131.43 5528.72 4132.18 5528.69 4132.94 5528.66C4170.34 5527.11 4207.67 5524.73 4245 5522C4245.68 5521.95 4246.37 5521.9 4247.07 5521.85C4336.37 5515.34 4425.41 5505.1 4647.03 5469C4648.07 5468.79 4649.12 5468.59 4650.2 5468.38C4652.14 5468.01 4654.08 5467.63 4656.01 5467.24C4656.87 5467.08 4657.72 5466.91 4658.6 5466.74C4659.33 5466.6 4660.07 5466.45 4660.82 5466.31C4663 5466 4663 5466 4668 5466C4668 5409.24 4668 5352.48 4668 5294C4672.18 5292.61 4675.57 5291.62 4679.82 5290.94C4681.52 5290.66 4681.52 5290.66 4683.26 5290.38C4684.49 5290.18 4685.72 5289.99 4686.98 5289.78C4688.98 5289.46 4690.97 5289.14 4692.96 5288.81C4695.08 5288.47 4697.21 5288.12 4699.34 5287.78C4774.12 5275.66 4848.27 5260.35 4922 5243C4923.37 5242.68 4923.37 5242.68 4924.77 5242.35C5005.85 5223.28 5086.22 5201.34 5228.64 5158.67C5230.57 5158.08 5232.5 5157.49 5234.43 5156.9C5266.26 5147.17 5297.86 5136.78 5329.43 5126.25C5333.29 5124.97 5337.15 5123.68 5341.01 5122.4C5364.15 5114.71 5387.24 5106.89 5410.25 5098.82C5411.11 5098.52 5411.96 5098.22 5412.85 5097.9C5414.43 5097.35 5416.01 5096.79 5417.59 5096.24C5419.73 5095.48 5421.86 5094.74 5424 5094C5424.8 5093.72 5425.61 5093.44 5426.43 5093.14C5427.23 5092.87 5428.03 5092.59 5428.85 5092.31C5429.94 5091.93 5429.94 5091.93 5431.04 5091.55C5433 5091 5433 5091 5436 5091C5435.9 5091.98 5435.9 5091.98 5435.79 5092.98C5435.3 5097.94 5434.95 5102.84 5434.91 5107.82C5434.69 5123.97 5433.62 5143.01 5423 5156C5407.01 5169.64 5380.5 5173.21 5360.66 5177.88C5350.61 5180.25 5340.93 5183.48 5331.22 5186.96C5326.86 5188.5 5322.46 5189.94 5318.07 5191.38C5316.75 5191.82 5316.75 5191.82 5315.41 5192.26C5294.9 5198.98 5274.31 5205.42 5253.71 5211.84C5250.05 5212.98 5246.4 5214.12 5242.75 5215.26C5176.1 5236.06 5109 5255.31 5041.49 5273.08C5037.22 5274.2 5032.96 5275.34 5028.7 5276.48C4937.93 5300.67 4845.89 5321.09 4725 5342C4725 5397.77 4725 5453.54 4725 5511C4721.77 5512.29 4719.25 5513.28 4715.96 5513.99C4715.19 5514.15 4714.42 5514.32 4713.62 5514.5C4712.37 5514.76 4712.37 5514.76 4711.09 5515.03C4709.76 5515.32 4709.76 5515.32 4708.4 5515.61C4705.43 5516.25 4702.47 5516.87 4699.5 5517.5C4698.46 5517.72 4697.43 5517.94 4696.36 5518.16C4610.79 5536.23 4524.21 5549.83 4123 5587C4122.33 5587.03 4121.67 5587.05 4120.98 5587.08C4036.5 5590.45 3951.79 5590.19 3663 5572C3661.82 5571.88 3660.65 5571.76 3659.44 5571.64C3568.95 5562.56 3478.58 5550.68 3299.81 5517.37C3298.32 5517.06 3298.32 5517.06 3296.8 5516.74C3294.04 5516.15 3291.28 5515.56 3288.52 5514.96C3287.72 5514.79 3286.92 5514.62 3286.1 5514.44C3282.17 5513.58 3278.77 5512.51 3275 5511C3275 5455.23 3275 5399.46 3275 5342C3268.07 5341.01 3261.14 5340.02 3254 5339C3249.11 5338.16 3244.23 5337.31 3239.35 5336.39C3238.03 5336.14 3236.71 5335.9 3235.39 5335.65C3231.86 5335 3228.34 5334.33 3224.82 5333.67C3222.59 5333.24 3220.36 5332.82 3218.12 5332.4C3164.47 5322.26 3111.08 5310.79 3058 5298C3056.95 5297.75 3056.95 5297.75 3055.88 5297.49C2978.99 5278.98 2902.71 5258.41 2741.44 5210.07C2738.02 5209.01 2734.6 5207.94 2731.18 5206.88C2705.41 5198.87 2679.71 5190.73 2654.16 5182.07C2650.42 5180.8 2646.68 5179.54 2642.94 5178.28C2630.59 5174.1 2618.23 5169.93 2605.88 5165.74C2605.14 5165.49 2604.4 5165.24 2603.64 5164.99C2600.14 5163.8 2596.63 5162.61 2593.13 5161.43C2591.26 5160.79 2591.26 5160.79 2589.35 5160.15C2588.27 5159.78 2587.18 5159.41 2586.06 5159.03C2582.99 5157.95 2582.99 5157.95 2579.71 5157.18C2577 5156 2577 5156 2575.83 5153.78C2575.63 5152.86 2575.44 5151.94 2575.23 5150.99C2575 5149.94 2574.76 5148.9 2574.52 5147.82C2574.29 5146.69 2574.06 5145.55 2573.82 5144.38C2573.44 5142.62 2573.44 5142.62 2573.05 5140.83C2572.24 5137.08 2571.46 5133.32 2570.69 5129.56C2570.15 5127.06 2569.61 5124.56 2569.06 5122.06C2568.54 5119.65 2568.03 5117.23 2567.51 5114.82C2567.27 5113.7 2567.03 5112.58 2566.79 5111.43C2565.39 5104.63 2564.46 5097.93 2564 5091Z" fill="#A7ABB4"/>
<path d="M3241.62 2114.69C3243.08 2114.69 3243.08 2114.69 3244.56 2114.69C3258.9 2114.73 3272.88 2115.25 3287 2118C3287.82 2118.15 3288.64 2118.3 3289.49 2118.45C3305.2 2121.34 3320.4 2125.47 3335 2132C3336.37 2132.58 3337.74 2133.16 3339.11 2133.74C3363.8 2144.3 3385.66 2158.59 3405.5 2176.72C3407.16 2178.24 3408.84 2179.74 3410.54 2181.22C3416.49 2186.45 3421.85 2191.98 3427 2198C3428.06 2199.23 3428.06 2199.23 3429.14 2200.48C3450.32 2225.66 3466.91 2255.32 3476 2287C3476.26 2287.89 3476.52 2288.78 3476.78 2289.69C3486.72 2324.66 3494.37 2377.47 3476 2411C3473.88 2414.53 3471.58 2417.79 3469 2421C3468.16 2422.05 3468.16 2422.05 3467.3 2423.12C3463.36 2427.51 3458.93 2430.48 3453.81 2433.31C3453.24 2433.64 3452.66 2433.96 3452.07 2434.3C3440.4 2440.38 3427.76 2440.5 3414.94 2440.37C3413.68 2440.37 3413.68 2440.37 3412.4 2440.36C3388.08 2440.19 3364.43 2436.66 3340.43 2433.1C3312.72 2428.99 3285.04 2425.41 3257 2425C3255.61 2424.97 3254.23 2424.94 3252.84 2424.91C3208.25 2423.91 3164.05 2429.43 3120.16 2436.98C3105.03 2439.56 3090.13 2440.18 3074.81 2440.19C3073.59 2440.19 3073.59 2440.19 3072.35 2440.19C3052.04 2440.19 3034.74 2437.96 3019.36 2423.51C2999.23 2402.08 3000.12 2368.88 3000.82 2341.42C3001.4 2324.62 3004.69 2307.99 3009.44 2291.9C3010.23 2289.22 3010.92 2286.52 3011.62 2283.81C3023.42 2238.84 3056.16 2193.7 3093 2166C3093.63 2165.52 3094.26 2165.04 3094.91 2164.55C3123.6 2142.81 3155.41 2127.91 3190.44 2119.62C3191.94 2119.27 3191.94 2119.27 3193.48 2118.9C3209.48 2115.32 3225.29 2114.63 3241.62 2114.69Z" fill="#69E6F4"/>
<path d="M4753.31 2114.62C4754.68 2114.63 4754.68 2114.63 4756.07 2114.63C4772.35 2114.66 4787.99 2115.89 4804 2119C4804.89 2119.17 4805.77 2119.33 4806.68 2119.5C4841.76 2126.34 4876.23 2143.76 4904 2166C4904.95 2166.75 4905.9 2167.49 4906.88 2168.26C4922.98 2181.36 4937.77 2196.33 4949.78 2213.27C4950.83 2214.75 4951.9 2216.22 4952.99 2217.68C4961.48 2229.29 4968.18 2242.02 4974.44 2254.94C4974.95 2255.98 4975.45 2257.02 4975.98 2258.09C4978.59 2263.57 4980.78 2268.94 4982.39 2274.8C4983.02 2277.06 4983.74 2279.28 4984.5 2281.5C4986.12 2286.3 4987.59 2291.14 4989 2296C4989.39 2297.33 4989.39 2297.33 4989.79 2298.69C4995.31 2318.2 4996.19 2338.08 4996.19 2358.25C4996.19 2359.01 4996.19 2359.76 4996.19 2360.54C4996.19 2382.62 4993.59 2407.41 4977.27 2423.95C4974 2426.9 4970.66 2429.56 4967 2432C4965.79 2432.84 4965.79 2432.84 4964.56 2433.69C4960.85 2435.59 4957.02 2436.88 4953 2438C4951.78 2438.35 4950.56 2438.71 4949.31 2439.07C4941.78 2440.69 4933.98 2440.35 4926.31 2440.31C4925.06 2440.31 4925.06 2440.31 4923.78 2440.31C4902.61 2440.24 4881.88 2438.12 4861.01 2434.62C4845.07 2431.96 4829.04 2429.92 4813 2428C4812.28 2427.91 4811.55 2427.83 4810.81 2427.74C4749.99 2420.52 4690.22 2427.97 4630.02 2436.88C4615.71 2438.99 4601.68 2440.19 4587.21 2440.18C4585 2440.19 4582.8 2440.21 4580.59 2440.22C4561.63 2440.3 4544.81 2437.06 4530.38 2423.87C4510.61 2403.19 4511.32 2371.97 4511.89 2345.4C4512.15 2337.54 4512.95 2329.79 4514 2322C4514.09 2321.24 4514.18 2320.48 4514.28 2319.7C4519.29 2278.21 4538.21 2238.5 4564 2206C4564.43 2205.46 4564.85 2204.91 4565.29 2204.35C4576.71 2189.91 4590.15 2175.92 4605 2165C4605.92 2164.32 4605.92 2164.32 4606.86 2163.62C4621.47 2152.91 4636.58 2143.66 4653 2136C4653.7 2135.67 4654.4 2135.34 4655.12 2135C4686.2 2120.63 4719.26 2114.55 4753.31 2114.62Z" fill="#69E6F4"/>
<path d="M3835.9 2728.87C3837.68 2728.86 3837.68 2728.86 3839.5 2728.86C3841.46 2728.86 3841.46 2728.86 3843.45 2728.86C3844.85 2728.86 3846.25 2728.85 3847.65 2728.85C3851.5 2728.84 3855.35 2728.84 3859.19 2728.84C3863.34 2728.84 3867.49 2728.83 3871.64 2728.82C3880.72 2728.81 3889.79 2728.8 3898.87 2728.8C3904.53 2728.8 3910.2 2728.79 3915.87 2728.79C3931.56 2728.78 3947.25 2728.77 3962.94 2728.76C3964.44 2728.76 3964.44 2728.76 3965.98 2728.76C3966.98 2728.76 3967.99 2728.76 3969.03 2728.76C3971.07 2728.76 3973.11 2728.76 3975.15 2728.76C3976.16 2728.76 3977.17 2728.76 3978.21 2728.76C3994.6 2728.75 4011 2728.74 4027.39 2728.71C4044.22 2728.69 4061.05 2728.68 4077.89 2728.68C4087.34 2728.68 4096.78 2728.67 4106.23 2728.65C4114.28 2728.64 4122.33 2728.63 4130.37 2728.64C4134.48 2728.64 4138.58 2728.64 4142.69 2728.63C4146.45 2728.62 4150.21 2728.62 4153.97 2728.63C4155.97 2728.63 4157.96 2728.62 4159.96 2728.61C4170.76 2728.67 4178.98 2730.52 4187 2738C4195.45 2747.33 4194.64 2758.96 4194.2 2770.81C4191.17 2820.16 4167.39 2867.69 4131 2901C4127.42 2904.12 4123.74 2907.08 4120 2910C4119.21 2910.63 4119.21 2910.63 4118.4 2911.27C4084.96 2937.76 4043.17 2951.21 4000.75 2951.25C4000.04 2951.25 3999.33 2951.25 3998.6 2951.25C3986.52 2951.23 3974.86 2950.4 3963 2948C3962.15 2947.83 3961.3 2947.67 3960.42 2947.5C3910.84 2937.56 3866.9 2907.19 3838.62 2865.46C3818.08 2834.3 3805.93 2798.92 3805.5 2761.44C3805.48 2760.52 3805.46 2759.6 3805.44 2758.65C3805.52 2750.05 3808.4 2742.93 3814.23 2736.57C3820.68 2730.85 3827.42 2728.88 3835.9 2728.87Z" fill="#54DFEE"/>
</g>
<defs>
<clipPath id="clip0_17_4">
<rect width="8000" height="8000" fill="white" transform="translate(0 -0.000488281)"/>
</clipPath>
</defs>
</svg>
