<svg width="3066" height="5175" viewBox="0 0 3066 5175" fill="none" xmlns="http://www.w3.org/2000/svg">
<path d="M1921.43 1687.89V3336.53L1841.09 3365.97V1727.14L1921.43 1687.89Z" fill="#645E50"/>
<path d="M1992.84 3994.03V4131.42C1992.84 4131.42 2000.68 4208.29 1928.01 4260.62C1855.33 4312.96 1764.27 4291.7 1711.42 4252.45C1658.57 4213.19 1347.94 4003.84 1347.94 4003.84C1347.94 4003.84 1328.07 3886.08 1413.95 3859.91C1499.84 3833.74 1612.13 3853.37 1651.78 3879.53C1691.42 3905.7 1764.08 3951.5 1764.08 3951.5C1764.08 3951.5 1837.17 3899.16 1903.24 3931.86C1969.3 3964.59 2001.77 3938.41 1992.84 3994.03Z" fill="black"/>
<path d="M1582.23 4141.23V4278.62C1582.23 4278.62 1593.86 4358.76 1521.19 4411.1C1448.51 4463.44 1356.87 4438.91 1304.02 4399.66C1251.17 4360.4 941.068 4151.05 941.068 4151.05C941.068 4151.05 921.466 4033.29 1007.35 4007.12C1093.24 3980.95 1205.67 4000.58 1245.31 4026.75C1284.95 4052.92 1357.68 4098.71 1357.68 4098.71C1357.68 4098.71 1428.66 4046.38 1494.74 4079.09C1560.8 4111.79 1591.16 4085.61 1582.23 4141.23Z" fill="black"/>
<path d="M2898.82 4941.59C2878.8 4930.16 2861.13 4931.38 2850.33 4942.51L2849.26 4941.01L2750.15 4996.21L2828.19 5140.95L2939.68 5086.97C2950.83 5079.61 2957.03 5065.75 2957.03 5037.91C2957.03 5000.3 2931.71 4960.4 2898.82 4941.59Z" fill="black"/>
<path d="M2849.37 5102.64C2849.37 5140.25 2822.69 5155.5 2789.79 5136.69C2756.89 5117.88 2730.23 5072.15 2730.23 5034.53C2730.23 4996.92 2756.9 4981.67 2789.8 5000.48C2822.7 5019.28 2849.37 5065.02 2849.37 5102.64Z" fill="#333333"/>
<path d="M1698.3 4971.04C1718.31 4959.6 1735.99 4960.82 1746.79 4971.96L1747.86 4970.45L1846.97 5025.65L1768.92 5170.39L1657.43 5116.42C1646.29 5109.05 1640.09 5095.19 1640.09 5067.35C1640.07 5029.74 1665.4 4989.85 1698.3 4971.04Z" fill="black"/>
<path d="M1747.75 5132.08C1747.75 5169.7 1774.42 5184.94 1807.32 5166.13C1840.23 5147.33 1866.89 5101.59 1866.89 5063.98C1866.89 5026.36 1840.22 5011.11 1807.32 5029.92C1774.41 5048.72 1747.74 5094.46 1747.75 5132.08Z" fill="#333333"/>
<path d="M2808.27 4450.93C2828.28 4439.48 2845.96 4440.71 2856.76 4451.85L2857.83 4450.35L2956.94 4505.54L2878.89 4650.29L2767.41 4596.31C2756.26 4588.95 2750.06 4575.09 2750.06 4547.25C2750.04 4509.64 2775.38 4469.74 2808.27 4450.93Z" fill="black"/>
<path d="M2857.72 4611.97C2857.72 4649.59 2884.39 4664.84 2917.3 4646.03C2950.2 4627.22 2976.86 4581.49 2976.86 4543.87C2976.86 4506.25 2950.19 4491 2917.29 4509.81C2884.38 4528.61 2857.72 4574.35 2857.72 4611.97Z" fill="#333333"/>
<path d="M1878.04 4450.93C1858.02 4439.48 1840.35 4440.71 1829.55 4451.85L1828.48 4450.35L1729.37 4505.54L1807.41 4650.29L1918.9 4596.31C1930.05 4588.95 1936.25 4575.09 1936.25 4547.25C1936.25 4509.64 1910.93 4469.74 1878.04 4450.93Z" fill="black"/>
<path d="M1828.59 4611.97C1828.59 4649.59 1801.92 4664.84 1769.01 4646.03C1736.11 4627.22 1709.45 4581.49 1709.45 4543.87C1709.45 4506.25 1736.12 4491 1769.02 4509.81C1801.92 4528.61 1828.59 4574.35 1828.59 4611.97Z" fill="#333333"/>
<path d="M2338.87 4635.16L1827.66 4389.01C1827.66 4389.01 1801.13 4373.07 1764.79 4392.69C1728.45 4412.32 1725.05 4438.9 1725.05 4438.9V4474.88L2252.47 4736.57L2338.87 4635.16Z" fill="#CCCCCC"/>
<path d="M2274.45 4654.79L2815.4 4389.01C2815.4 4389.01 2839.05 4373.06 2875.39 4392.68C2911.72 4412.31 2912.24 4438.89 2912.24 4438.89V4474.87L2357.98 4756.19L2274.45 4654.79Z" fill="#CCCCCC"/>
<path d="M2418.16 4792.18H2186.91V4584.54C2186.91 4527.59 2233.53 4481.41 2291.06 4481.41H2314.02C2371.53 4481.41 2418.17 4527.58 2418.17 4584.54L2418.16 4792.18Z" fill="#999999"/>
<path d="M2251.7 4163.05V4514.14C2251.7 4514.14 2252.41 4573.02 2311.86 4573.02C2371.32 4573.02 2358.82 4520.68 2358.82 4520.68V4163.05H2251.7Z" fill="#666666"/>
<path d="M2189.22 3895.89V4170.66C2189.22 4170.66 2228.12 4219.73 2297.49 4219.73C2366.87 4219.73 2412.37 4170.66 2412.37 4170.66V3856.64L2189.22 3895.89Z" fill="#B3B3B3"/>
<path d="M1269.81 4043.09C1269.81 4043.09 1269.18 4177.21 1401.31 4190.29C1533.46 4203.37 1619.03 4157.58 1625.63 4085.61C1629.73 4041 1629.22 3727.33 1627.88 3495.35L1269.81 3286.96V4043.09Z" fill="#808080"/>
<path d="M1783.88 2731.38C1676.43 2798.58 1631.92 2875.31 1638.53 3025.78C1645.14 3176.25 1658.35 3928.6 1658.35 3928.6C1658.35 3928.6 1669.35 4052.9 1842.78 4052.9C1955.88 4052.9 2010.69 3994.02 2010.69 3928.6C2010.69 3863.18 2010.69 3195.87 2010.69 3195.87L2346.56 3346.34C2346.56 3346.34 2547.05 3444.7 2695.36 3339.8C2926.61 3176.25 2788.83 3045.4 2788.83 3045.4C2788.83 3045.4 2266.54 2790.25 2167.43 2737.92C2068.33 2685.58 1909.41 2652.87 1783.88 2731.38Z" fill="#666666"/>
<path d="M1878.03 3233.49C2019.93 3143.56 2116.72 3093.5 2234.8 3076.48C2404.93 3051.94 2629.57 3127.18 2755.1 3179.52C2836.03 3213.26 3075.54 3313.64 3019.38 3444.48C2979.43 3537.58 2783.19 3604.76 2639.48 3673.46C2495.78 3742.15 2309.13 3863.18 2150.56 3872.99C1992 3882.8 1818.56 3799.39 1674.86 3706.17C1531.15 3612.94 1546.03 3478.83 1640.17 3395.41C1716.31 3327.97 1754.15 3312 1878.03 3233.49Z" fill="#E86D6D"/>
<path d="M2854.21 2875.31L2021.73 3097.74C2021.73 3097.74 1638.53 2921.1 1559.25 2921.1C1479.96 2921.1 1431.05 2914.56 1338.55 2993.07C1246.06 3071.57 1269.81 3199.14 1269.81 3199.14V3286.96L1627.73 3495.35C1627.72 3494.33 1627.4 3493.28 1627.39 3492.25C1698.09 3529.11 1817.4 3587.34 1917.83 3616.21C2071.44 3660.36 2289.39 3611.3 2368.68 3567.14C2447.96 3522.98 2705.59 3400.32 2804.7 3292.37C2903.81 3184.42 2854.21 2875.31 2854.21 2875.31Z" fill="#808080"/>
<path d="M1564.38 3522.98V3660.37C1564.38 3660.37 1588.24 3801.03 1736.9 3879.54C1885.55 3958.05 2117.16 4023.47 2229.48 3980.95C2341.8 3938.42 2764.83 3722.53 2857.33 3673.46C2949.82 3624.4 2996.17 3598.23 3012.68 3555.71C3029.19 3513.18 3016.03 3382.33 3016.03 3382.33C3016.03 3382.33 2774.89 3572.06 2497.4 3663.65C2219.91 3755.24 2113.48 3807.58 1978.03 3774.87C1842.6 3742.15 1564.38 3522.98 1564.38 3522.98Z" fill="#333333"/>
<path d="M2170.39 3954.77C2129.28 3889.64 2156.4 3817.77 2200.79 3761.54C2114.86 3785.55 2050.32 3792.32 1978.06 3774.86C1842.61 3742.15 1564.38 3522.98 1564.38 3522.98V3660.37C1564.38 3660.37 1588.24 3801.03 1736.9 3879.54C1874.83 3952.38 2084.15 4013.9 2203.32 3988.43C2191.72 3978.53 2181 3967.37 2170.39 3954.77Z" fill="#4D4D4D"/>
<path d="M2319.05 3208.96C2249.67 3091.2 2259.59 2944 2328.96 2845.87C2477.62 2659.41 2715.46 2639.78 2913.67 2512.21C2955.5 2487.37 3025.41 2476.67 3058.16 2509.29C3040.96 2427.55 2998.23 2412.29 2969.83 2410.8C2907.06 2407.53 2858.77 2449.16 2629.57 2561.28C2355.38 2695.39 2309.13 2682.3 2246.36 2734.65C2183.59 2786.98 2147.25 2911.29 2157.17 3045.4C2167.08 3179.52 2266.19 3287.47 2345.47 3284.19C2364.49 3283.4 2381.25 3280.52 2399.31 3275.09C2363.51 3262.81 2333.88 3238.33 2319.05 3208.96Z" fill="#4D4D4D"/>
<path d="M2913.68 2512.21C2715.47 2639.78 2477.62 2659.41 2328.97 2845.87C2259.59 2944 2249.68 3091.2 2319.06 3208.96C2333.88 3238.33 2363.52 3262.81 2399.33 3275.1C2456.56 3257.92 2527.03 3214.99 2725.39 3130.46C2877.51 3065.62 2958.36 3009.49 3002.88 2927.65C3034.74 2869.08 3046.64 2799.09 3059.04 2695.4C3069.14 2610.96 3067.03 2551.36 3058.19 2509.3C3025.42 2476.68 2955.5 2487.37 2913.68 2512.21Z" fill="#333333"/>
<path d="M2802.18 2777.99L2624.62 2863.86L2624.61 2869.13L2725.38 2921.1L2897.51 2822.04L2802.18 2777.99Z" fill="#808080"/>
<path d="M1699.65 4998.26C1699.65 4998.26 1652.57 4923.02 1725.25 4896.85C1797.92 4870.68 2202.19 4671.15 2202.19 4671.15C2202.19 4671.15 2289.31 4684.23 2289.31 4716.94C2289.31 4749.65 2299.22 4788.91 2299.22 4788.91C2299.22 4788.91 1859.86 4991.71 1816.91 5014.61C1773.98 5037.51 1737.64 5021.15 1699.65 4998.26Z" fill="#CCCCCC"/>
<path d="M2933.91 4998.26C2933.91 4998.26 2971.08 4923.02 2898.4 4896.85C2825.72 4870.68 2424.77 4661.34 2424.77 4661.34C2424.77 4661.34 2340.96 4674.42 2340.96 4707.13C2340.96 4739.84 2340.96 4779.09 2340.96 4779.09C2340.96 4779.09 2777.01 4991.72 2819.95 5014.61C2862.9 5037.51 2895.92 5021.15 2933.91 4998.26Z" fill="#CCCCCC"/>
<path d="M234.082 1934.43L238.358 2013.94L605.227 2200.16L603.245 2153.83L234.082 1934.43Z" fill="#4D4D4D"/>
<path d="M1373.17 1375.5L1713.9 1592.29L603.245 2153.83L234.082 1934.43L1373.17 1375.5Z" fill="#B3B3B3"/>
<path d="M1714.13 1592.3L603.245 2153.83L605.227 2200.16L1713.51 1646.55L1714.13 1592.3Z" fill="#808080"/>
<path fill-rule="evenodd" clip-rule="evenodd" d="M362.316 1961.88L329.021 1940.28L366.253 1921.7L399.548 1943.3L362.316 1961.88Z" fill="#E6E6E6"/>
<path fill-rule="evenodd" clip-rule="evenodd" d="M434.913 1925.65L401.618 1904.06L438.841 1885.48L472.135 1907.08L434.913 1925.65Z" fill="#E6E6E6"/>
<path fill-rule="evenodd" clip-rule="evenodd" d="M481.446 1902.43L448.151 1880.84L485.374 1862.27L518.669 1883.86L481.446 1902.43Z" fill="#E6E6E6"/>
<path fill-rule="evenodd" clip-rule="evenodd" d="M527.979 1879.22L494.684 1857.62L531.915 1839.05L565.201 1860.65L527.979 1879.22Z" fill="#E6E6E6"/>
<path fill-rule="evenodd" clip-rule="evenodd" d="M600.567 1843L567.281 1821.41L604.504 1802.83L637.799 1824.42L600.567 1843Z" fill="#E6E6E6"/>
<path fill-rule="evenodd" clip-rule="evenodd" d="M647.099 1819.78L613.813 1798.19L651.036 1779.62L684.331 1801.21L647.099 1819.78Z" fill="#E6E6E6"/>
<path fill-rule="evenodd" clip-rule="evenodd" d="M693.632 1796.56L660.346 1774.97L697.568 1756.4L730.863 1777.99L693.632 1796.56Z" fill="#E6E6E6"/>
<path fill-rule="evenodd" clip-rule="evenodd" d="M766.23 1760.35L732.935 1738.76L770.166 1720.18L803.452 1741.77L766.23 1760.35Z" fill="#E6E6E6"/>
<path fill-rule="evenodd" clip-rule="evenodd" d="M812.762 1737.13L779.467 1715.54L816.698 1696.96L849.984 1718.56L812.762 1737.13Z" fill="#E6E6E6"/>
<path fill-rule="evenodd" clip-rule="evenodd" d="M859.294 1713.91L825.999 1692.32L863.23 1673.75L896.525 1695.34L859.294 1713.91Z" fill="#E6E6E6"/>
<path fill-rule="evenodd" clip-rule="evenodd" d="M933.748 1676.76L900.453 1655.17L937.684 1636.6L970.97 1658.19L933.748 1676.76Z" fill="#E6E6E6"/>
<path fill-rule="evenodd" clip-rule="evenodd" d="M978.165 1653.55L945.504 1631.45L983.655 1613.24L1016.31 1635.35L978.165 1653.55Z" fill="#E6E6E6"/>
<path fill-rule="evenodd" clip-rule="evenodd" d="M1026.81 1630.33L993.527 1608.74L1030.75 1590.16L1064.04 1611.76L1026.81 1630.33Z" fill="#E6E6E6"/>
<path fill-rule="evenodd" clip-rule="evenodd" d="M1086.38 1600.62L1053.08 1579.02L1090.31 1560.45L1123.6 1582.04L1086.38 1600.62Z" fill="#E6E6E6"/>
<path fill-rule="evenodd" clip-rule="evenodd" d="M1132.91 1577.4L1099.62 1555.81L1136.85 1537.23L1170.14 1558.82L1132.91 1577.4Z" fill="#E6E6E6"/>
<path fill-rule="evenodd" clip-rule="evenodd" d="M1179.44 1554.18L1146.16 1532.59L1183.38 1514.02L1216.67 1535.61L1179.44 1554.18Z" fill="#E6E6E6"/>
<path fill-rule="evenodd" clip-rule="evenodd" d="M1241.03 1594.13L1207.74 1572.54L1244.97 1553.96L1278.27 1575.55L1241.03 1594.13Z" fill="#E6E6E6"/>
<path fill-rule="evenodd" clip-rule="evenodd" d="M1282.65 1621.12L1249.35 1599.53L1286.58 1580.95L1319.88 1602.54L1282.65 1621.12Z" fill="#E6E6E6"/>
<path fill-rule="evenodd" clip-rule="evenodd" d="M1194.5 1617.35L1161.21 1595.75L1198.44 1577.18L1231.72 1598.77L1194.5 1617.35Z" fill="#E6E6E6"/>
<path fill-rule="evenodd" clip-rule="evenodd" d="M1236.12 1644.33L1202.82 1622.74L1240.05 1604.17L1273.34 1625.76L1236.12 1644.33Z" fill="#E6E6E6"/>
<path fill-rule="evenodd" clip-rule="evenodd" d="M1147.97 1640.56L1114.67 1618.97L1151.91 1600.4L1185.19 1621.99L1147.97 1640.56Z" fill="#E6E6E6"/>
<path fill-rule="evenodd" clip-rule="evenodd" d="M1189.58 1667.55L1156.29 1645.96L1193.52 1627.39L1226.81 1648.98L1189.58 1667.55Z" fill="#E6E6E6"/>
<path fill-rule="evenodd" clip-rule="evenodd" d="M1300.6 1564.41L1267.3 1542.82L1304.54 1524.24L1337.82 1545.84L1300.6 1564.41Z" fill="#E6E6E6"/>
<path fill-rule="evenodd" clip-rule="evenodd" d="M1347.13 1541.2L1313.84 1519.6L1351.07 1501.02L1384.35 1522.62L1347.13 1541.2Z" fill="#E6E6E6"/>
<path fill-rule="evenodd" clip-rule="evenodd" d="M1393.66 1517.98L1360.37 1496.38L1397.6 1477.81L1430.9 1499.41L1393.66 1517.98Z" fill="#E6E6E6"/>
<path fill-rule="evenodd" clip-rule="evenodd" d="M1440.2 1494.76L1406.9 1473.16L1444.13 1454.59L1477.43 1476.19L1440.2 1494.76Z" fill="#E6E6E6"/>
<path fill-rule="evenodd" clip-rule="evenodd" d="M1342.21 1591.4L1308.92 1569.81L1346.15 1551.24L1379.44 1572.83L1342.21 1591.4Z" fill="#E6E6E6"/>
<path fill-rule="evenodd" clip-rule="evenodd" d="M1388.75 1568.19L1355.45 1546.6L1392.68 1528.02L1425.97 1549.61L1388.75 1568.19Z" fill="#E6E6E6"/>
<path fill-rule="evenodd" clip-rule="evenodd" d="M1435.28 1544.97L1401.98 1523.38L1439.21 1504.81L1472.51 1526.4L1435.28 1544.97Z" fill="#E6E6E6"/>
<path fill-rule="evenodd" clip-rule="evenodd" d="M1383.83 1618.39L1348.87 1595.72L1386.09 1577.15L1421.05 1599.82L1383.83 1618.39Z" fill="#E6E6E6"/>
<path fill-rule="evenodd" clip-rule="evenodd" d="M1430.36 1595.18L1395.41 1572.5L1432.63 1553.93L1467.59 1576.6L1430.36 1595.18Z" fill="#E6E6E6"/>
<path fill-rule="evenodd" clip-rule="evenodd" d="M1476.89 1571.96L1441.94 1549.29L1479.16 1530.71L1514.12 1553.38L1476.89 1571.96Z" fill="#E6E6E6"/>
<path fill-rule="evenodd" clip-rule="evenodd" d="M1423.78 1644.31L1390.49 1622.71L1427.71 1604.14L1461 1625.74L1423.78 1644.31Z" fill="#E6E6E6"/>
<path fill-rule="evenodd" clip-rule="evenodd" d="M1470.31 1621.09L1437.02 1599.5L1474.24 1580.93L1507.54 1602.52L1470.31 1621.09Z" fill="#E6E6E6"/>
<path fill-rule="evenodd" clip-rule="evenodd" d="M1516.85 1597.87L1483.55 1576.28L1520.78 1557.71L1554.07 1579.3L1516.85 1597.87Z" fill="#E6E6E6"/>
<path fill-rule="evenodd" clip-rule="evenodd" d="M1558.46 1624.86L1525.17 1603.27L1562.4 1584.7L1595.68 1606.29L1558.46 1624.86Z" fill="#E6E6E6"/>
<path fill-rule="evenodd" clip-rule="evenodd" d="M1405.83 1701.02L1372.54 1679.42L1409.77 1660.85L1443.05 1682.45L1405.83 1701.02Z" fill="#E6E6E6"/>
<path fill-rule="evenodd" clip-rule="evenodd" d="M1359.3 1724.24L1326 1702.64L1363.23 1684.06L1396.52 1705.66L1359.3 1724.24Z" fill="#E6E6E6"/>
<path fill-rule="evenodd" clip-rule="evenodd" d="M1312.77 1747.46L1279.47 1725.85L1316.7 1707.28L1349.99 1728.88L1312.77 1747.46Z" fill="#E6E6E6"/>
<path fill-rule="evenodd" clip-rule="evenodd" d="M1317.68 1697.24L1284.39 1675.65L1321.61 1657.07L1354.91 1678.67L1317.68 1697.24Z" fill="#E6E6E6"/>
<path fill-rule="evenodd" clip-rule="evenodd" d="M1026.98 1700.93L993.688 1679.34L1030.92 1660.76L1064.2 1682.35L1026.98 1700.93Z" fill="#E6E6E6"/>
<path fill-rule="evenodd" clip-rule="evenodd" d="M980.45 1724.15L947.155 1702.56L984.378 1683.98L1017.67 1705.57L980.45 1724.15Z" fill="#E6E6E6"/>
<path fill-rule="evenodd" clip-rule="evenodd" d="M933.918 1747.36L900.623 1725.77L937.845 1707.2L971.14 1728.79L933.918 1747.36Z" fill="#E6E6E6"/>
<path fill-rule="evenodd" clip-rule="evenodd" d="M887.376 1770.58L854.09 1748.99L891.312 1730.42L924.607 1752.01L887.376 1770.58Z" fill="#E6E6E6"/>
<path fill-rule="evenodd" clip-rule="evenodd" d="M840.844 1793.8L807.558 1772.2L844.78 1753.63L878.075 1775.22L840.844 1793.8Z" fill="#E6E6E6"/>
<path fill-rule="evenodd" clip-rule="evenodd" d="M794.311 1817.01L761.025 1795.42L798.248 1776.84L831.543 1798.44L794.311 1817.01Z" fill="#E6E6E6"/>
<path fill-rule="evenodd" clip-rule="evenodd" d="M747.778 1840.23L714.483 1818.63L751.715 1800.06L785.01 1821.66L747.778 1840.23Z" fill="#E6E6E6"/>
<path fill-rule="evenodd" clip-rule="evenodd" d="M701.246 1863.45L667.951 1841.85L705.182 1823.28L738.477 1844.88L701.246 1863.45Z" fill="#E6E6E6"/>
<path fill-rule="evenodd" clip-rule="evenodd" d="M654.714 1886.67L621.419 1865.07L658.651 1846.49L691.936 1868.09L654.714 1886.67Z" fill="#E6E6E6"/>
<path fill-rule="evenodd" clip-rule="evenodd" d="M608.18 1909.89L574.886 1888.28L613.974 1868.79L647.269 1890.38L608.18 1909.89Z" fill="#E6E6E6"/>
<path fill-rule="evenodd" clip-rule="evenodd" d="M561.649 1933.1L528.354 1911.5L567.442 1892.01L600.737 1913.6L561.649 1933.1Z" fill="#E6E6E6"/>
<path fill-rule="evenodd" clip-rule="evenodd" d="M515.116 1956.32L481.821 1934.72L520.91 1915.22L554.204 1936.82L515.116 1956.32Z" fill="#E6E6E6"/>
<path fill-rule="evenodd" clip-rule="evenodd" d="M470.44 1978.61L437.146 1957.01L474.377 1938.44L507.672 1960.03L470.44 1978.61Z" fill="#E6E6E6"/>
<path fill-rule="evenodd" clip-rule="evenodd" d="M423.907 2001.82L390.612 1980.22L427.844 1961.65L461.13 1983.25L423.907 2001.82Z" fill="#E6E6E6"/>
<path fill-rule="evenodd" clip-rule="evenodd" d="M534.388 1994.45L501.102 1972.86L538.324 1954.28L571.619 1975.88L534.388 1994.45Z" fill="#E6E6E6"/>
<path fill-rule="evenodd" clip-rule="evenodd" d="M580.929 1971.24L547.634 1949.64L584.856 1931.06L618.151 1952.67L580.929 1971.24Z" fill="#E6E6E6"/>
<path fill-rule="evenodd" clip-rule="evenodd" d="M627.462 1948.02L594.167 1926.42L631.389 1907.85L664.684 1929.45L627.462 1948.02Z" fill="#E6E6E6"/>
<path fill-rule="evenodd" clip-rule="evenodd" d="M673.994 1924.8L640.699 1903.2L677.931 1884.63L711.217 1906.23L673.994 1924.8Z" fill="#E6E6E6"/>
<path fill-rule="evenodd" clip-rule="evenodd" d="M720.527 1901.59L687.232 1879.99L724.464 1861.41L757.75 1883.01L720.527 1901.59Z" fill="#E6E6E6"/>
<path fill-rule="evenodd" clip-rule="evenodd" d="M767.06 1878.37L733.765 1856.77L770.996 1838.19L804.282 1859.8L767.06 1878.37Z" fill="#E6E6E6"/>
<path fill-rule="evenodd" clip-rule="evenodd" d="M813.592 1855.15L780.297 1833.55L817.528 1814.98L850.823 1836.58L813.592 1855.15Z" fill="#E6E6E6"/>
<path fill-rule="evenodd" clip-rule="evenodd" d="M858.267 1832.86L824.973 1811.26L864.061 1791.76L897.355 1813.36L858.267 1832.86Z" fill="#E6E6E6"/>
<path fill-rule="evenodd" clip-rule="evenodd" d="M904.8 1809.65L871.505 1788.05L910.593 1768.55L943.888 1790.14L904.8 1809.65Z" fill="#E6E6E6"/>
<path fill-rule="evenodd" clip-rule="evenodd" d="M951.333 1786.43L918.038 1764.83L957.126 1745.33L990.421 1766.93L951.333 1786.43Z" fill="#E6E6E6"/>
<path fill-rule="evenodd" clip-rule="evenodd" d="M997.865 1763.21L964.57 1741.61L1001.8 1723.04L1035.09 1744.64L997.865 1763.21Z" fill="#E6E6E6"/>
<path fill-rule="evenodd" clip-rule="evenodd" d="M1044.4 1740L1011.1 1718.4L1048.33 1699.82L1081.62 1721.42L1044.4 1740Z" fill="#E6E6E6"/>
<path fill-rule="evenodd" clip-rule="evenodd" d="M1054.37 1782.78L1019.41 1760.1L1056.64 1741.53L1091.6 1764.2L1054.37 1782.78Z" fill="#E6E6E6"/>
<path fill-rule="evenodd" clip-rule="evenodd" d="M1007.84 1805.99L972.881 1783.31L1010.1 1764.74L1045.07 1787.42L1007.84 1805.99Z" fill="#E6E6E6"/>
<path fill-rule="evenodd" clip-rule="evenodd" d="M961.304 1829.21L926.349 1806.53L963.571 1787.96L998.526 1810.64L961.304 1829.21Z" fill="#E6E6E6"/>
<path fill-rule="evenodd" clip-rule="evenodd" d="M914.771 1852.43L879.815 1829.75L917.038 1811.17L951.993 1833.85L914.771 1852.43Z" fill="#E6E6E6"/>
<path fill-rule="evenodd" clip-rule="evenodd" d="M868.238 1875.64L833.283 1852.96L870.506 1834.39L905.461 1857.07L868.238 1875.64Z" fill="#E6E6E6"/>
<path fill-rule="evenodd" clip-rule="evenodd" d="M821.706 1898.86L786.751 1876.18L823.974 1857.61L858.929 1880.28L821.706 1898.86Z" fill="#E6E6E6"/>
<path fill-rule="evenodd" clip-rule="evenodd" d="M775.173 1922.07L740.209 1899.4L777.44 1880.82L812.396 1903.5L775.173 1922.07Z" fill="#E6E6E6"/>
<path fill-rule="evenodd" clip-rule="evenodd" d="M728.632 1945.29L693.677 1922.62L730.908 1904.04L765.863 1926.71L728.632 1945.29Z" fill="#E6E6E6"/>
<path fill-rule="evenodd" clip-rule="evenodd" d="M682.1 1968.51L647.145 1945.83L686.233 1926.33L721.188 1949.01L682.1 1968.51Z" fill="#E6E6E6"/>
<path fill-rule="evenodd" clip-rule="evenodd" d="M635.567 1991.72L600.611 1969.05L639.699 1949.55L674.655 1972.23L635.567 1991.72Z" fill="#E6E6E6"/>
<path fill-rule="evenodd" clip-rule="evenodd" d="M589.034 2014.94L554.079 1992.27L593.167 1972.76L628.122 1995.44L589.034 2014.94Z" fill="#E6E6E6"/>
<path fill-rule="evenodd" clip-rule="evenodd" d="M653.188 2028.78L619.893 2007.19L657.115 1988.61L690.41 2010.21L653.188 2028.78Z" fill="#E6E6E6"/>
<path fill-rule="evenodd" clip-rule="evenodd" d="M699.72 2005.57L666.425 1983.97L703.647 1965.4L736.942 1987L699.72 2005.57Z" fill="#E6E6E6"/>
<path fill-rule="evenodd" clip-rule="evenodd" d="M746.252 1982.35L712.957 1960.75L750.188 1942.18L783.474 1963.78L746.252 1982.35Z" fill="#E6E6E6"/>
<path fill-rule="evenodd" clip-rule="evenodd" d="M792.785 1959.14L759.49 1937.54L796.722 1918.96L830.008 1940.56L792.785 1959.14Z" fill="#E6E6E6"/>
<path fill-rule="evenodd" clip-rule="evenodd" d="M839.317 1935.92L806.022 1914.32L843.254 1895.74L876.54 1917.34L839.317 1935.92Z" fill="#E6E6E6"/>
<path fill-rule="evenodd" clip-rule="evenodd" d="M885.849 1912.7L852.555 1891.1L889.786 1872.53L923.081 1894.13L885.849 1912.7Z" fill="#E6E6E6"/>
<path fill-rule="evenodd" clip-rule="evenodd" d="M932.382 1889.48L899.087 1867.88L936.318 1849.31L969.613 1870.91L932.382 1889.48Z" fill="#E6E6E6"/>
<path fill-rule="evenodd" clip-rule="evenodd" d="M978.915 1866.27L945.629 1844.67L982.851 1826.09L1016.15 1847.69L978.915 1866.27Z" fill="#E6E6E6"/>
<path fill-rule="evenodd" clip-rule="evenodd" d="M1025.45 1843.05L992.161 1821.45L1029.38 1802.88L1062.68 1824.48L1025.45 1843.05Z" fill="#E6E6E6"/>
<path fill-rule="evenodd" clip-rule="evenodd" d="M1071.98 1819.83L1038.69 1798.23L1075.92 1779.66L1109.21 1801.26L1071.98 1819.83Z" fill="#E6E6E6"/>
<path fill-rule="evenodd" clip-rule="evenodd" d="M1211.59 1750.18L1178.29 1728.59L1215.52 1710.01L1248.81 1731.6L1211.59 1750.18Z" fill="#E6E6E6"/>
<path fill-rule="evenodd" clip-rule="evenodd" d="M1521.77 1547.67L1448.53 1500.16L1485.75 1481.59L1558.99 1529.09L1521.77 1547.67Z" fill="#E6E6E6"/>
<path fill-rule="evenodd" clip-rule="evenodd" d="M1604.99 1601.65L1530.08 1553.07L1567.32 1534.49L1642.22 1583.07L1604.99 1601.65Z" fill="#E6E6E6"/>
<path fill-rule="evenodd" clip-rule="evenodd" d="M1465.4 1671.3L1432.1 1649.71L1515.86 1607.92L1549.15 1629.51L1465.4 1671.3Z" fill="#E6E6E6"/>
<path fill-rule="evenodd" clip-rule="evenodd" d="M1229 1789.25L1195.71 1767.65L1257.14 1737L1290.42 1758.59L1229 1789.25Z" fill="#E6E6E6"/>
<path fill-rule="evenodd" clip-rule="evenodd" d="M1160.14 1823.6L1126.84 1802.01L1186.41 1772.29L1219.69 1793.89L1160.14 1823.6Z" fill="#E6E6E6"/>
<path fill-rule="evenodd" clip-rule="evenodd" d="M1091.26 1857.97L1057.97 1836.37L1117.53 1806.65L1150.83 1828.25L1091.26 1857.97Z" fill="#E6E6E6"/>
<path fill-rule="evenodd" clip-rule="evenodd" d="M726.436 2039.99L693.15 2018.39L752.715 1988.67L786.001 2010.27L726.436 2039.99Z" fill="#E6E6E6"/>
<path fill-rule="evenodd" clip-rule="evenodd" d="M657.57 2074.35L624.275 2052.76L683.84 2023.04L717.135 2044.63L657.57 2074.35Z" fill="#E6E6E6"/>
<path fill-rule="evenodd" clip-rule="evenodd" d="M588.704 2108.71L555.409 2087.12L614.974 2057.4L648.26 2078.99L588.704 2108.71Z" fill="#E6E6E6"/>
<path fill-rule="evenodd" clip-rule="evenodd" d="M1118.52 1796.61L1085.23 1775.02L1167.12 1734.15L1200.42 1755.75L1118.52 1796.61Z" fill="#E6E6E6"/>
<path fill-rule="evenodd" clip-rule="evenodd" d="M1073.52 1677.71L1040.22 1656.12L1092.34 1630.11L1125.64 1651.71L1073.52 1677.71Z" fill="#E6E6E6"/>
<path fill-rule="evenodd" clip-rule="evenodd" d="M465.522 2028.81L432.227 2007.22L491.791 1977.5L525.086 1999.1L465.522 2028.81Z" fill="#E6E6E6"/>
<path fill-rule="evenodd" clip-rule="evenodd" d="M547.09 2081.72L513.795 2060.13L610.582 2011.83L643.877 2033.43L547.09 2081.72Z" fill="#E6E6E6"/>
<path fill-rule="evenodd" clip-rule="evenodd" d="M507.136 2055.8L472.181 2033.13L546.635 1995.98L581.59 2018.66L507.136 2055.8Z" fill="#E6E6E6"/>
<path fill-rule="evenodd" clip-rule="evenodd" d="M795.311 2005.63L762.016 1984.03L1048.66 1841.01L1081.96 1862.61L795.311 2005.63Z" fill="#E6E6E6"/>
<path fill-rule="evenodd" clip-rule="evenodd" d="M1099.24 1758.48L1065.95 1736.89L1091.33 1724.22C1093.66 1723.05 1093.35 1721.71 1093.03 1720.1C1092.97 1719.84 1091.29 1719.78 1091.29 1719.65V1719.51C1091.29 1718.74 1092.31 1718.32 1091.46 1717.71L1057.21 1694.95L1133.52 1657.09L1206.98 1704.6L1099.24 1758.48Z" fill="#E6E6E6"/>
<path fill-rule="evenodd" clip-rule="evenodd" d="M1286.87 1487.9C1286.81 1492.54 1282.96 1496.25 1278.28 1496.2C1273.59 1496.14 1269.83 1492.33 1269.89 1487.69C1269.96 1483.04 1273.8 1479.33 1278.49 1479.39C1283.18 1479.45 1286.93 1483.26 1286.87 1487.9Z" fill="#8EC175"/>
<path fill-rule="evenodd" clip-rule="evenodd" d="M1338.13 1461.21C1338.07 1465.85 1334.22 1469.57 1329.54 1469.51C1324.85 1469.45 1321.1 1465.64 1321.16 1461C1321.22 1456.36 1325.07 1452.64 1329.75 1452.7C1334.44 1452.76 1338.2 1456.57 1338.13 1461.21Z" fill="#8EC175"/>
<path fill-rule="evenodd" clip-rule="evenodd" d="M1382.98 1438.66C1382.92 1443.3 1379.07 1447.01 1374.38 1446.96C1369.7 1446.89 1365.95 1443.08 1366 1438.44C1366.07 1433.8 1369.91 1430.09 1374.6 1430.15C1379.28 1430.21 1383.04 1434.02 1382.98 1438.66Z" fill="#8EC175"/>
<path d="M1171.52 127.57L1153.77 137.513C1153.77 428.883 1153.77 707.993 1153.77 1000.96L1169.25 1010.77L1171.52 127.57Z" fill="#B3B3B3"/>
<path d="M1517.83 1301.32C1517.83 1301.32 1632.3 1388.27 1699.95 1408.88C1767.59 1429.49 1830.68 1401.8 1830.68 1360.58C1830.68 1319.36 1788.41 1229.19 1725.96 1193.13C1663.52 1157.05 1621.89 1146.76 1575.06 1172.51C1528.24 1198.27 1497.02 1244.64 1517.83 1301.32Z" fill="#B3B3B3"/>
<path d="M1575.07 1172.5C1538.39 1192.68 1511.42 1225.54 1511.39 1266.04C1511.65 1266.8 1511.82 1267.54 1512.1 1268.3C1512.1 1268.3 1628.67 1356.84 1697.56 1377.83C1759.06 1396.57 1816.73 1376.05 1828.41 1341.57C1818.95 1296.11 1780.05 1224.35 1725.97 1193.12C1663.52 1157.05 1621.9 1146.75 1575.07 1172.5Z" fill="#808080"/>
<path d="M1575.07 1172.5C1553.09 1184.6 1534.65 1201.27 1523.35 1221.39C1538.12 1228.78 1552.29 1234.88 1564.87 1238.72C1626.37 1257.45 1684.04 1236.94 1695.72 1202.46C1699.95 1186.68 1696.05 1182.81 1686.7 1172.88C1644.56 1154.31 1611.36 1152.55 1575.07 1172.5Z" fill="#B3B3B3"/>
<path d="M1627.1 1176.38C1644.89 1186.91 1655.45 1207.49 1651 1210.12C1646.55 1212.76 1628.53 1206.35 1610.74 1195.81C1592.95 1185.28 1582.14 1174.59 1586.59 1171.96C1591.04 1169.32 1609.31 1165.83 1627.1 1176.38Z" fill="#3FA9F5"/>
<path d="M1543.02 1682.01C1543.02 1682.01 1477.44 1544.43 1448.86 1525.08C1420.27 1505.73 1351.17 1505.85 1304.31 1501.35C1269 1497.96 1195.38 1513.6 1190.55 1544.66C1185.72 1575.72 1209.4 1580.98 1240.74 1591.38C1272.08 1601.78 1315.99 1610.93 1329.83 1622.11C1343.68 1633.3 1341.76 1652.84 1317.34 1648.03C1292.91 1643.22 1258.07 1617.69 1229.99 1624.85C1207.87 1630.49 1202.87 1663.69 1249.87 1676.06C1296.88 1688.42 1284.95 1699.14 1313.59 1711.75C1342.22 1724.35 1377.66 1746.44 1410.08 1743.2C1447.78 1739.42 1522.4 1790.95 1522.4 1790.95L1614.13 1718.42L1543.02 1682.01Z" fill="#F7CFC7"/>
<path d="M2606.46 1625.74L2150.58 1769.67L1664.96 1622.47C1664.96 1622.47 1565.85 1582.39 1491.52 1665.81C1399.78 1768.78 1479.96 1851.45 1479.96 1851.45L2104.33 2064.08C2104.33 2064.08 2190.22 2103.33 2335.57 2051C2441.68 2012.8 2860.83 1916.88 2860.83 1916.88C2860.83 1916.88 2999.58 1880.89 2926.9 1694.44C2880.15 1574.53 2665.91 1599.58 2606.46 1625.74Z" fill="#7EAEBD"/>
<path d="M2447.88 1614.29C2447.88 1614.29 1988.94 1809.63 1927.58 1844.9C1773.97 1933.22 1729.37 2217.81 1744.23 2566.18C1759.1 2914.55 1764.05 3038.86 1764.05 3038.86C1764.05 3038.86 1750.84 3182.79 1892.89 3258.02C2000.36 3314.95 2086.15 3297.28 2229.85 3238.4C2373.55 3179.53 2879.27 2924.38 2879.27 2924.38C2879.27 2924.38 2939.02 2880.21 2939.02 2762.45C2939.02 2644.7 2939.02 2168.8 2939.02 1952.85C2939.02 1756.59 2871.84 1663.36 2740.53 1609.39C2652.5 1573.2 2532.13 1575.04 2447.88 1614.29Z" fill="#93CCDD"/>
<path d="M2519.49 1560.32V1786.03C2519.49 1786.03 2515.78 1857.26 2364.76 1879.26C2196.29 1903.8 2165.99 1795.85 2165.99 1795.85L2161.88 1579.95L2519.49 1560.32Z" fill="#F7CFC7"/>
<path d="M1850.02 912.636V1314.99C1850.02 1314.99 1911.1 1604.48 2015.16 1653.54C2119.23 1702.61 2333.11 1746.78 2466.9 1653.54C2600.69 1560.32 2685.34 1511.25 2705.16 1432.74C2724.99 1354.24 2723.57 873.383 2723.57 873.383L1850.02 912.636Z" fill="#F7CFC7"/>
<path d="M1831.78 932.267C1831.78 932.267 1729.37 804.697 1803.7 657.497C1832.8 599.868 1902.81 559.36 2041.55 500.485C2180.3 441.602 2418.15 451.422 2586.62 539.738C2737.63 618.898 2799.7 701.655 2799.7 932.267C2799.7 1156.24 2761.71 1272.46 2735.28 1383.68C2708.85 1494.9 2560.17 1560.32 2467.67 1606.12C2375.18 1651.91 2176.98 1527.61 2176.98 1527.61C2176.98 1527.61 2098.54 1476.91 2160.47 1302.73C2174.96 1261.98 2167.91 1123.64 2071.28 1135.9C2008.1 1143.93 2016.77 1252.85 2016.77 1252.85L1962.27 1233.22V1140.91C1962.27 1071.29 1929.39 1005.68 1873.41 963.583L1831.78 932.267Z" fill="#D88E3C"/>
<path d="M763.703 2247.25L673.415 2199.58C673.415 2199.58 646.653 2217.82 589.668 2185.92C521.347 2147.68 524.641 2110.4 497.996 2087.78C463.308 2058.34 443.992 2051.62 408.805 2026.45C368.181 1997.4 411.286 1923.41 473.226 1920.96C493.283 1920.17 522.293 1921.76 582.242 1945.5C619.411 1960.21 668.157 2012.58 668.157 2012.58C668.157 2012.58 640.325 1968.28 626.846 1955.31C613.368 1942.34 632.041 1914.24 659.132 1936.59C686.215 1958.94 727.615 2011.73 729.105 2030.46C730.596 2049.18 751.68 2104.21 751.68 2104.21L837.452 2153.38L763.703 2247.25Z" fill="#F7CFC7"/>
<path d="M1869.77 1998.64L1347.82 2247.25L872.122 2064.07C872.122 2064.07 770.541 2011.73 691.258 2117.23C622.624 2208.55 687.125 2293.05 687.125 2293.05L1255.33 2535.1C1255.33 2535.1 1341.21 2587.44 1486.57 2535.1C1592.68 2496.9 1968.88 2312.67 1968.88 2312.67C1968.88 2312.67 2193.52 2247.24 2134.05 2103.31C2084.9 1984.36 1968.88 1959.39 1869.77 1998.64Z" fill="#7EAEBD"/>
<path d="M398.066 1624.1C398.066 1624.1 388.158 1696.07 424.425 1722.16C478.768 1761.26 628.729 1739.09 751.831 1673.57C964.624 1560.32 893.598 1480.17 893.598 1480.17L398.066 1624.1Z" fill="#4D4D4D"/>
<path d="M515.045 1491.78C390.604 1554.77 368.047 1653.3 424.425 1689.46C480.804 1725.62 627.391 1703.85 751.832 1640.87C876.272 1577.88 931.437 1497.51 875.058 1461.35C818.671 1425.19 639.477 1428.78 515.045 1491.78Z" fill="#B3B3B3"/>
<path d="M555.713 1550.5V1364.05L591.418 1377.14V1570.13L555.713 1550.5Z" fill="#4D4D4D"/>
<path d="M591.418 1377.14L693.775 1323.16L697.105 1514.52L591.418 1570.13V1377.14Z" fill="#666666"/>
<path d="M2.28516 1617.56L82.6214 1655.18V608.424L2.28516 565.901V1617.56Z" fill="#4D4D4D"/>
<path d="M0 565.901L1129.8 0L1209.08 39.2529L79.2831 608.424L0 565.901Z" fill="#999999"/>
<path d="M1207.33 39.2529V1089.28L82.6211 1655.18V608.424L1207.33 39.2529Z" fill="#808080"/>
<path d="M138.75 644.407L1169.44 127.57L1166.13 1010.77L132.136 1521.07L138.75 644.407Z" fill="#7DBDEB"/>
<path d="M138.75 644.407L132.358 1492.65C474.046 1320.06 826.714 1158.34 1166.24 983.611L1169.45 127.57L138.75 644.407Z" fill="#7DBDEB"/>
<path d="M131.314 1505.12L132.136 1521.06L1166.13 1010.76L1149.61 1000.95C810.093 1175.7 472.993 1332.52 131.314 1505.12Z" fill="#666666"/>
<path fill-rule="evenodd" clip-rule="evenodd" d="M176.347 696.75V1354.24L925.607 986.237L927.571 323.843L176.347 696.75Z" fill="white" stroke="#808080" stroke-miterlimit="10"/>
<path fill-rule="evenodd" clip-rule="evenodd" d="M885.984 349.086L929.018 328.607L926.768 380.261L885.984 399.688V349.086Z" fill="white"/>
<path d="M921.975 335.766L919.082 377.415L885.984 392.67V351.871L921.975 335.766ZM931.588 321.448L877.058 346.293V406.706L927.75 383.107L931.588 321.448Z" fill="#3FA9F5"/>
<path fill-rule="evenodd" clip-rule="evenodd" d="M782.377 400.139L823.5 378.997V428.892L782.546 447.63L782.377 400.139Z" fill="white"/>
<path d="M823.501 388.905V426.054L789.518 440.78L789.875 402.826L823.51 386.218M832.427 371.784L780.119 397.443L781.503 454.48L832.427 431.729V371.784Z" fill="#3FA9F5"/>
<path fill-rule="evenodd" clip-rule="evenodd" d="M171.884 696.75V748.598L787.795 452.685V395.313L171.884 696.75Z" fill="#3FA9F5"/>
<path fill-rule="evenodd" clip-rule="evenodd" d="M832.427 374.507L877.058 353.453V403.958L832.427 424.631V374.507Z" fill="white"/>
<path d="M868.132 362.389V401.2L841.353 417.534V377.238L868.132 360.603M877.058 346.293L832.427 371.784V431.729L877.058 406.706V346.293Z" fill="#3FA9F5"/>
<path d="M899.989 378.422L915.476 350.209" stroke="#3FA9F5" stroke-width="0.5" stroke-miterlimit="10"/>
<path d="M898.133 357.572L916.101 371.068" stroke="#3FA9F5" stroke-width="0.5" stroke-miterlimit="10"/>
<path d="M796.552 428.105L816.377 418.904" stroke="#3FA9F5" stroke-width="0.5" stroke-miterlimit="10"/>
<path fill-rule="evenodd" clip-rule="evenodd" d="M850.439 382.718L851.055 400.51L864.686 394.376L865.31 374.745L850.439 382.718Z" stroke="#3FA9F5" stroke-width="0.5" stroke-miterlimit="10"/>
<path fill-rule="evenodd" clip-rule="evenodd" d="M216.516 765.436C216.516 772.799 216.516 1118.71 216.516 1118.71L430.746 1000.95V650.125L216.516 765.436Z" fill="#CCCCCC"/>
<path fill-rule="evenodd" clip-rule="evenodd" d="M493.229 628.055V794.878L905.657 588.802L910.04 424.428L493.229 628.055Z" fill="#CCCCCC"/>
<path d="M2566.81 2489.32C2416.49 2546.57 2259.59 2607.08 2200.12 2623.44C2140.66 2639.79 2067.98 2760.83 2074.59 2898.21C2081.2 3035.6 2104.33 3156.63 2157.18 3205.69C2210.03 3254.75 2305.84 3307.1 2457.8 3235.13C2609.76 3163.17 2817.87 3074.85 2877.34 3032.33C2936.81 2989.8 2991.66 2938.07 3012.79 2875.32C3035.92 2806.62 3059.04 2665.96 3052.43 2531.85C3046.42 2409.87 2976.45 2296.33 2860.83 2348.67C2745.2 2400.99 2695.65 2440.25 2566.81 2489.32Z" fill="#E86D6D"/>
<path d="M2246.37 2734.65C2309.14 2682.31 2355.39 2695.39 2629.57 2561.28C2858.78 2449.16 2907.07 2407.53 2969.83 2410.8C3012.85 2413.05 3088.76 2446.79 3059.03 2695.39C3046.63 2799.09 3034.73 2869.08 3002.86 2927.64C2958.34 3009.48 2877.49 3065.62 2725.37 3130.45C2464.39 3241.66 2424.75 3280.92 2345.47 3284.19C2266.19 3287.46 2167.08 3179.51 2157.17 3045.4C2147.27 2911.29 2183.6 2786.98 2246.37 2734.65Z" fill="#333333"/>
<path d="M2799.7 2777.99L2751.57 2800.75V3885.17L2760.88 3889.35L2912.24 3807.57V2829.51L2799.7 2777.99Z" fill="#666666"/>
<path d="M2622.85 2863.86L2622.22 3696.36L2537.34 3670.18V3774.86L2751.57 3885.17V2800.75L2622.85 2863.86Z" fill="#4D4D4D"/>
</svg>
