<svg width="400" height="160" viewBox="0 0 400 160" fill="none" xmlns="http://www.w3.org/2000/svg">
<rect width="400" height="160" fill="#070A10"/>
<ellipse cx="200" cy="80" rx="200" ry="80" fill="url(#paint0_linear_1_7)" fill-opacity="0.46"/>
<g filter="url(#filter0_d_1_7)">
<path d="M105.503 91V61.6H116.003C117.599 61.6 119.041 61.999 120.329 62.797C121.631 63.595 122.66 64.666 123.416 66.01C124.172 67.354 124.55 68.831 124.55 70.441C124.55 72.093 124.158 73.591 123.374 74.935C122.604 76.265 121.568 77.329 120.266 78.127C118.964 78.911 117.543 79.303 116.003 79.303H110.627V91H105.503ZM110.627 74.179H115.457C116.185 74.179 116.85 73.997 117.452 73.633C118.054 73.269 118.53 72.779 118.88 72.163C119.244 71.547 119.426 70.861 119.426 70.105C119.426 69.335 119.244 68.642 118.88 68.026C118.53 67.41 118.054 66.92 117.452 66.556C116.85 66.192 116.185 66.01 115.457 66.01H110.627V74.179ZM127.836 91L127.815 70H132.939L132.96 71.869C133.674 71.113 134.528 70.518 135.522 70.084C136.516 69.636 137.587 69.412 138.735 69.412C139.505 69.412 140.275 69.524 141.045 69.748L139.029 74.914C138.497 74.704 137.965 74.599 137.433 74.599C136.607 74.599 135.851 74.802 135.165 75.208C134.493 75.6 133.954 76.139 133.548 76.825C133.156 77.497 132.96 78.246 132.96 79.072V91H127.836ZM151.657 91.546C149.725 91.546 147.961 91.049 146.365 90.055C144.783 89.061 143.516 87.724 142.564 86.044C141.626 84.364 141.157 82.509 141.157 80.479C141.157 78.953 141.43 77.525 141.976 76.195C142.522 74.851 143.271 73.675 144.223 72.667C145.189 71.645 146.309 70.847 147.583 70.273C148.857 69.699 150.215 69.412 151.657 69.412C153.295 69.412 154.793 69.762 156.151 70.462C157.523 71.148 158.685 72.093 159.637 73.297C160.589 74.501 161.282 75.873 161.716 77.413C162.15 78.953 162.248 80.563 162.01 82.243H146.659C146.855 83.027 147.177 83.734 147.625 84.364C148.073 84.98 148.64 85.477 149.326 85.855C150.012 86.219 150.789 86.408 151.657 86.422C152.553 86.436 153.365 86.226 154.093 85.792C154.835 85.344 155.451 84.742 155.941 83.986L161.17 85.204C160.316 87.066 159.042 88.592 157.348 89.782C155.654 90.958 153.757 91.546 151.657 91.546ZM146.491 78.4H156.823C156.669 77.56 156.34 76.804 155.836 76.132C155.346 75.446 154.737 74.9 154.009 74.494C153.281 74.088 152.497 73.885 151.657 73.885C150.817 73.885 150.04 74.088 149.326 74.494C148.612 74.886 148.003 75.425 147.499 76.111C147.009 76.783 146.673 77.546 146.491 78.4ZM170.551 101.5H165.427V70H170.551V72.667C171.237 71.715 172.077 70.945 173.071 70.357C174.079 69.755 175.255 69.454 176.599 69.454C178.139 69.454 179.574 69.741 180.904 70.315C182.234 70.889 183.403 71.687 184.411 72.709C185.433 73.717 186.224 74.886 186.784 76.216C187.358 77.546 187.645 78.974 187.645 80.5C187.645 82.026 187.358 83.461 186.784 84.805C186.224 86.149 185.433 87.332 184.411 88.354C183.403 89.362 182.234 90.153 180.904 90.727C179.574 91.301 178.139 91.588 176.599 91.588C175.255 91.588 174.079 91.294 173.071 90.706C172.077 90.104 171.237 89.327 170.551 88.375V101.5ZM176.536 74.389C175.472 74.389 174.52 74.669 173.68 75.229C172.84 75.775 172.182 76.51 171.706 77.434C171.23 78.358 170.992 79.38 170.992 80.5C170.992 81.62 171.23 82.649 171.706 83.587C172.182 84.511 172.84 85.253 173.68 85.813C174.52 86.359 175.472 86.632 176.536 86.632C177.614 86.632 178.601 86.359 179.497 85.813C180.393 85.267 181.107 84.532 181.639 83.608C182.171 82.67 182.437 81.634 182.437 80.5C182.437 79.38 182.171 78.358 181.639 77.434C181.107 76.51 180.393 75.775 179.497 75.229C178.615 74.669 177.628 74.389 176.536 74.389ZM191.431 75.838H204.871V80.962H191.431V75.838ZM232.189 61.6V66.724H223.201V91H218.077V66.724H209.089V61.6H232.189ZM242.424 91.546C240.492 91.546 238.728 91.049 237.132 90.055C235.55 89.061 234.283 87.724 233.331 86.044C232.393 84.364 231.924 82.509 231.924 80.479C231.924 78.953 232.197 77.525 232.743 76.195C233.289 74.851 234.038 73.675 234.99 72.667C235.956 71.645 237.076 70.847 238.35 70.273C239.624 69.699 240.982 69.412 242.424 69.412C244.062 69.412 245.56 69.762 246.918 70.462C248.29 71.148 249.452 72.093 250.404 73.297C251.356 74.501 252.049 75.873 252.483 77.413C252.917 78.953 253.015 80.563 252.777 82.243H237.426C237.622 83.027 237.944 83.734 238.392 84.364C238.84 84.98 239.407 85.477 240.093 85.855C240.779 86.219 241.556 86.408 242.424 86.422C243.32 86.436 244.132 86.226 244.86 85.792C245.602 85.344 246.218 84.742 246.708 83.986L251.937 85.204C251.083 87.066 249.809 88.592 248.115 89.782C246.421 90.958 244.524 91.546 242.424 91.546ZM237.258 78.4H247.59C247.436 77.56 247.107 76.804 246.603 76.132C246.113 75.446 245.504 74.9 244.776 74.494C244.048 74.088 243.264 73.885 242.424 73.885C241.584 73.885 240.807 74.088 240.093 74.494C239.379 74.886 238.77 75.425 238.266 76.111C237.776 76.783 237.44 77.546 237.258 78.4ZM269.296 84.679L273.916 87.178C272.95 88.494 271.739 89.551 270.283 90.349C268.827 91.147 267.238 91.546 265.516 91.546C263.584 91.546 261.82 91.049 260.224 90.055C258.642 89.061 257.375 87.731 256.423 86.065C255.485 84.385 255.016 82.53 255.016 80.5C255.016 78.96 255.289 77.525 255.835 76.195C256.381 74.851 257.13 73.675 258.082 72.667C259.048 71.645 260.168 70.847 261.442 70.273C262.716 69.699 264.074 69.412 265.516 69.412C267.238 69.412 268.827 69.811 270.283 70.609C271.739 71.407 272.95 72.478 273.916 73.822L269.296 76.3C268.806 75.74 268.225 75.306 267.553 74.998C266.895 74.69 266.216 74.536 265.516 74.536C264.508 74.536 263.598 74.816 262.786 75.376C261.974 75.922 261.33 76.65 260.854 77.56C260.378 78.456 260.14 79.436 260.14 80.5C260.14 81.55 260.378 82.53 260.854 83.44C261.33 84.336 261.974 85.057 262.786 85.603C263.598 86.149 264.508 86.422 265.516 86.422C266.244 86.422 266.937 86.268 267.595 85.96C268.253 85.638 268.82 85.211 269.296 84.679ZM296.266 77.728V91H291.142V79.072C291.142 78.246 290.939 77.497 290.533 76.825C290.127 76.139 289.581 75.6 288.895 75.208C288.223 74.802 287.474 74.599 286.648 74.599C285.822 74.599 285.066 74.802 284.38 75.208C283.708 75.6 283.169 76.139 282.763 76.825C282.371 77.497 282.175 78.246 282.175 79.072V91H277.051L277.03 59.5H282.154L282.175 71.869C282.889 71.113 283.743 70.518 284.737 70.084C285.731 69.636 286.802 69.412 287.95 69.412C289.476 69.412 290.869 69.79 292.129 70.546C293.389 71.288 294.39 72.289 295.132 73.549C295.888 74.795 296.266 76.188 296.266 77.728Z" fill="url(#paint1_linear_1_7)" shape-rendering="crispEdges"/>
</g>
<defs>
<filter id="filter0_d_1_7" x="101.503" y="59.5" width="198.763" height="50" filterUnits="userSpaceOnUse" color-interpolation-filters="sRGB">
<feFlood flood-opacity="0" result="BackgroundImageFix"/>
<feColorMatrix in="SourceAlpha" type="matrix" values="0 0 0 0 0 0 0 0 0 0 0 0 0 0 0 0 0 0 127 0" result="hardAlpha"/>
<feOffset dy="4"/>
<feGaussianBlur stdDeviation="2"/>
<feComposite in2="hardAlpha" operator="out"/>
<feColorMatrix type="matrix" values="0 0 0 0 0 0 0 0 0 0 0 0 0 0 0 0 0 0 0.25 0"/>
<feBlend mode="normal" in2="BackgroundImageFix" result="effect1_dropShadow_1_7"/>
<feBlend mode="normal" in="SourceGraphic" in2="effect1_dropShadow_1_7" result="shape"/>
</filter>
<linearGradient id="paint0_linear_1_7" x1="200" y1="0" x2="200" y2="160" gradientUnits="userSpaceOnUse">
<stop stop-color="#A35CC5"/>
<stop offset="1" stop-color="#7A6385" stop-opacity="0"/>
</linearGradient>
<linearGradient id="paint1_linear_1_7" x1="200.456" y1="50" x2="200.456" y2="101.802" gradientUnits="userSpaceOnUse">
<stop stop-color="#9408D6"/>
<stop offset="1" stop-color="white" stop-opacity="0"/>
</linearGradient>
</defs>
</svg>
