<svg width="200" height="51" viewBox="0 0 200 51" fill="none" xmlns="http://www.w3.org/2000/svg">
<g filter="url(#filter0_d_1_14)">
<path d="M4.50283 32V2.6H15.0028C16.5988 2.6 18.0408 2.999 19.3288 3.797C20.6308 4.595 21.6598 5.666 22.4158 7.01C23.1718 8.354 23.5498 9.831 23.5498 11.441C23.5498 13.093 23.1578 14.591 22.3738 15.935C21.6038 17.265 20.5678 18.329 19.2658 19.127C17.9638 19.911 16.5428 20.303 15.0028 20.303H9.62683V32H4.50283ZM9.62683 15.179H14.4568C15.1848 15.179 15.8498 14.997 16.4518 14.633C17.0538 14.269 17.5298 13.779 17.8798 13.163C18.2438 12.547 18.4258 11.861 18.4258 11.105C18.4258 10.335 18.2438 9.642 17.8798 9.026C17.5298 8.41 17.0538 7.92 16.4518 7.556C15.8498 7.192 15.1848 7.01 14.4568 7.01H9.62683V15.179ZM26.8363 32L26.8153 11H31.9393L31.9603 12.869C32.6743 12.113 33.5283 11.518 34.5223 11.084C35.5163 10.636 36.5873 10.412 37.7353 10.412C38.5053 10.412 39.2753 10.524 40.0453 10.748L38.0293 15.914C37.4973 15.704 36.9653 15.599 36.4333 15.599C35.6073 15.599 34.8513 15.802 34.1653 16.208C33.4933 16.6 32.9543 17.139 32.5483 17.825C32.1563 18.497 31.9603 19.246 31.9603 20.072V32H26.8363ZM50.6569 32.546C48.7249 32.546 46.9609 32.049 45.3649 31.055C43.7829 30.061 42.5159 28.724 41.5639 27.044C40.6259 25.364 40.1569 23.509 40.1569 21.479C40.1569 19.953 40.4299 18.525 40.9759 17.195C41.5219 15.851 42.2709 14.675 43.2229 13.667C44.1889 12.645 45.3089 11.847 46.5829 11.273C47.8569 10.699 49.2149 10.412 50.6569 10.412C52.2949 10.412 53.7929 10.762 55.1509 11.462C56.5229 12.148 57.6849 13.093 58.6369 14.297C59.5889 15.501 60.2819 16.873 60.7159 18.413C61.1499 19.953 61.2479 21.563 61.0099 23.243H45.6589C45.8549 24.027 46.1769 24.734 46.6249 25.364C47.0729 25.98 47.6399 26.477 48.3259 26.855C49.0119 27.219 49.7889 27.408 50.6569 27.422C51.5529 27.436 52.3649 27.226 53.0929 26.792C53.8349 26.344 54.4509 25.742 54.9409 24.986L60.1699 26.204C59.3159 28.066 58.0419 29.592 56.3479 30.782C54.6539 31.958 52.7569 32.546 50.6569 32.546ZM45.4909 19.4H55.8229C55.6689 18.56 55.3399 17.804 54.8359 17.132C54.3459 16.446 53.7369 15.9 53.0089 15.494C52.2809 15.088 51.4969 14.885 50.6569 14.885C49.8169 14.885 49.0399 15.088 48.3259 15.494C47.6119 15.886 47.0029 16.425 46.4989 17.111C46.0089 17.783 45.6729 18.546 45.4909 19.4ZM69.5507 42.5H64.4267V11H69.5507V13.667C70.2367 12.715 71.0767 11.945 72.0707 11.357C73.0787 10.755 74.2547 10.454 75.5987 10.454C77.1387 10.454 78.5737 10.741 79.9037 11.315C81.2337 11.889 82.4027 12.687 83.4107 13.709C84.4327 14.717 85.2237 15.886 85.7837 17.216C86.3577 18.546 86.6447 19.974 86.6447 21.5C86.6447 23.026 86.3577 24.461 85.7837 25.805C85.2237 27.149 84.4327 28.332 83.4107 29.354C82.4027 30.362 81.2337 31.153 79.9037 31.727C78.5737 32.301 77.1387 32.588 75.5987 32.588C74.2547 32.588 73.0787 32.294 72.0707 31.706C71.0767 31.104 70.2367 30.327 69.5507 29.375V42.5ZM75.5357 15.389C74.4717 15.389 73.5197 15.669 72.6797 16.229C71.8397 16.775 71.1817 17.51 70.7057 18.434C70.2297 19.358 69.9917 20.38 69.9917 21.5C69.9917 22.62 70.2297 23.649 70.7057 24.587C71.1817 25.511 71.8397 26.253 72.6797 26.813C73.5197 27.359 74.4717 27.632 75.5357 27.632C76.6137 27.632 77.6007 27.359 78.4967 26.813C79.3927 26.267 80.1067 25.532 80.6387 24.608C81.1707 23.67 81.4367 22.634 81.4367 21.5C81.4367 20.38 81.1707 19.358 80.6387 18.434C80.1067 17.51 79.3927 16.775 78.4967 16.229C77.6147 15.669 76.6277 15.389 75.5357 15.389ZM90.4306 16.838H103.871V21.962H90.4306V16.838ZM131.189 2.6V7.724H122.201V32H117.077V7.724H108.089V2.6H131.189ZM141.424 32.546C139.492 32.546 137.728 32.049 136.132 31.055C134.55 30.061 133.283 28.724 132.331 27.044C131.393 25.364 130.924 23.509 130.924 21.479C130.924 19.953 131.197 18.525 131.743 17.195C132.289 15.851 133.038 14.675 133.99 13.667C134.956 12.645 136.076 11.847 137.35 11.273C138.624 10.699 139.982 10.412 141.424 10.412C143.062 10.412 144.56 10.762 145.918 11.462C147.29 12.148 148.452 13.093 149.404 14.297C150.356 15.501 151.049 16.873 151.483 18.413C151.917 19.953 152.015 21.563 151.777 23.243H136.426C136.622 24.027 136.944 24.734 137.392 25.364C137.84 25.98 138.407 26.477 139.093 26.855C139.779 27.219 140.556 27.408 141.424 27.422C142.32 27.436 143.132 27.226 143.86 26.792C144.602 26.344 145.218 25.742 145.708 24.986L150.937 26.204C150.083 28.066 148.809 29.592 147.115 30.782C145.421 31.958 143.524 32.546 141.424 32.546ZM136.258 19.4H146.59C146.436 18.56 146.107 17.804 145.603 17.132C145.113 16.446 144.504 15.9 143.776 15.494C143.048 15.088 142.264 14.885 141.424 14.885C140.584 14.885 139.807 15.088 139.093 15.494C138.379 15.886 137.77 16.425 137.266 17.111C136.776 17.783 136.44 18.546 136.258 19.4ZM168.296 25.679L172.916 28.178C171.95 29.494 170.739 30.551 169.283 31.349C167.827 32.147 166.238 32.546 164.516 32.546C162.584 32.546 160.82 32.049 159.224 31.055C157.642 30.061 156.375 28.731 155.423 27.065C154.485 25.385 154.016 23.53 154.016 21.5C154.016 19.96 154.289 18.525 154.835 17.195C155.381 15.851 156.13 14.675 157.082 13.667C158.048 12.645 159.168 11.847 160.442 11.273C161.716 10.699 163.074 10.412 164.516 10.412C166.238 10.412 167.827 10.811 169.283 11.609C170.739 12.407 171.95 13.478 172.916 14.822L168.296 17.3C167.806 16.74 167.225 16.306 166.553 15.998C165.895 15.69 165.216 15.536 164.516 15.536C163.508 15.536 162.598 15.816 161.786 16.376C160.974 16.922 160.33 17.65 159.854 18.56C159.378 19.456 159.14 20.436 159.14 21.5C159.14 22.55 159.378 23.53 159.854 24.44C160.33 25.336 160.974 26.057 161.786 26.603C162.598 27.149 163.508 27.422 164.516 27.422C165.244 27.422 165.937 27.268 166.595 26.96C167.253 26.638 167.82 26.211 168.296 25.679ZM195.266 18.728V32H190.142V20.072C190.142 19.246 189.939 18.497 189.533 17.825C189.127 17.139 188.581 16.6 187.895 16.208C187.223 15.802 186.474 15.599 185.648 15.599C184.822 15.599 184.066 15.802 183.38 16.208C182.708 16.6 182.169 17.139 181.763 17.825C181.371 18.497 181.175 19.246 181.175 20.072V32H176.051L176.03 0.499997H181.154L181.175 12.869C181.889 12.113 182.743 11.518 183.737 11.084C184.731 10.636 185.802 10.412 186.95 10.412C188.476 10.412 189.869 10.79 191.129 11.546C192.389 12.288 193.39 13.289 194.132 14.549C194.888 15.795 195.266 17.188 195.266 18.728Z" fill="url(#paint0_linear_1_14)" shape-rendering="crispEdges"/>
</g>
<defs>
<filter id="filter0_d_1_14" x="0.502827" y="0.5" width="198.763" height="50" filterUnits="userSpaceOnUse" color-interpolation-filters="sRGB">
<feFlood flood-opacity="0" result="BackgroundImageFix"/>
<feColorMatrix in="SourceAlpha" type="matrix" values="0 0 0 0 0 0 0 0 0 0 0 0 0 0 0 0 0 0 127 0" result="hardAlpha"/>
<feOffset dy="4"/>
<feGaussianBlur stdDeviation="2"/>
<feComposite in2="hardAlpha" operator="out"/>
<feColorMatrix type="matrix" values="0 0 0 0 0 0 0 0 0 0 0 0 0 0 0 0 0 0 0.25 0"/>
<feBlend mode="normal" in2="BackgroundImageFix" result="effect1_dropShadow_1_14"/>
<feBlend mode="normal" in="SourceGraphic" in2="effect1_dropShadow_1_14" result="shape"/>
</filter>
<linearGradient id="paint0_linear_1_14" x1="99.4565" y1="-9" x2="99.4565" y2="42.8016" gradientUnits="userSpaceOnUse">
<stop stop-color="#9408D6"/>
<stop offset="1" stop-color="white" stop-opacity="0"/>
</linearGradient>
</defs>
</svg>
